<?xml version="1.0" encoding="UTF-8"?>
<!DOCTYPE svg PUBLIC "-//W3C//DTD SVG 1.1//EN" "http://www.w3.org/Graphics/SVG/1.1/DTD/svg11.dtd">
<!-- Creator: CorelDRAW 2017 -->
<svg xmlns="http://www.w3.org/2000/svg" xml:space="preserve" width="499px" height="207px" version="1.1" style="shape-rendering:geometricPrecision; text-rendering:geometricPrecision; image-rendering:optimizeQuality; fill-rule:evenodd; clip-rule:evenodd"
viewBox="0 0 163.08 67.57"
 xmlns:xlink="http://www.w3.org/1999/xlink">
 <defs>
  <style type="text/css">
   <![CDATA[
    .fil1 {fill:white}
    .fil0 {fill:white;fill-rule:nonzero}
   ]]>
  </style>
 </defs>
 <g id="Layer_x0020_1">
  <metadata id="CorelCorpID_0Corel-Layer"/>
  <g id="_1407520224656">
   <g>
    <path class="fil0" d="M64.26 35.04l1.84 0.58c-0.28,1.03 -0.75,1.8 -1.41,2.3 -0.65,0.5 -1.49,0.75 -2.5,0.75 -1.24,0 -2.27,-0.43 -3.07,-1.29 -0.81,-0.85 -1.21,-2.03 -1.21,-3.51 0,-1.57 0.4,-2.79 1.21,-3.66 0.81,-0.87 1.87,-1.3 3.19,-1.3 1.15,0 2.09,0.34 2.8,1.02 0.43,0.4 0.75,0.98 0.97,1.74l-1.88 0.45c-0.11,-0.49 -0.35,-0.88 -0.7,-1.16 -0.35,-0.28 -0.78,-0.42 -1.29,-0.42 -0.69,0 -1.26,0.25 -1.69,0.75 -0.44,0.5 -0.65,1.31 -0.65,2.44 0,1.19 0.21,2.04 0.64,2.55 0.43,0.51 0.98,0.76 1.66,0.76 0.51,0 0.94,-0.16 1.31,-0.49 0.36,-0.32 0.62,-0.82 0.78,-1.51z"/>
    <path class="fil0" d="M76.22 38.51l-2.07 0 -0.82 -2.15 -3.76 0 -0.78 2.15 -2.01 0 3.66 -9.44 2.01 0 3.77 9.44zm-3.5 -3.74l-1.3 -3.5 -1.27 3.5 2.57 0z"/>
    <path class="fil0" d="M77.23 38.51l0 -9.44 4 0c1,0 1.73,0.08 2.19,0.25 0.45,0.17 0.82,0.47 1.09,0.91 0.28,0.43 0.41,0.93 0.41,1.48 0,0.71 -0.21,1.3 -0.62,1.76 -0.41,0.46 -1.04,0.75 -1.86,0.87 0.41,0.24 0.75,0.51 1.02,0.79 0.26,0.29 0.62,0.8 1.08,1.53l1.15 1.85 -2.27 0 -1.38 -2.06c-0.49,-0.73 -0.82,-1.19 -1,-1.39 -0.18,-0.19 -0.37,-0.32 -0.57,-0.39 -0.2,-0.07 -0.52,-0.1 -0.96,-0.1l-0.38 0 0 3.94 -1.9 0zm1.9 -5.45l1.4 0c0.91,0 1.48,-0.04 1.71,-0.12 0.23,-0.07 0.4,-0.21 0.53,-0.4 0.13,-0.19 0.2,-0.42 0.2,-0.7 0,-0.32 -0.09,-0.58 -0.26,-0.77 -0.17,-0.2 -0.41,-0.32 -0.71,-0.37 -0.16,-0.02 -0.62,-0.04 -1.39,-0.04l-1.48 0 0 2.4z"/>
    <path class="fil0" d="M86.71 29.07l3.47 0c0.78,0 1.38,0.06 1.79,0.18 0.55,0.16 1.02,0.45 1.41,0.87 0.4,0.41 0.7,0.92 0.9,1.52 0.21,0.61 0.31,1.35 0.31,2.24 0,0.77 -0.09,1.44 -0.29,2.01 -0.23,0.68 -0.57,1.24 -1,1.66 -0.33,0.33 -0.78,0.58 -1.34,0.76 -0.42,0.13 -0.98,0.2 -1.68,0.2l-3.57 0 0 -9.44zm1.9 1.59l0 6.25 1.41 0c0.53,0 0.92,-0.02 1.15,-0.09 0.31,-0.07 0.57,-0.2 0.77,-0.39 0.2,-0.18 0.37,-0.49 0.5,-0.91 0.12,-0.42 0.19,-1 0.19,-1.73 0,-0.73 -0.07,-1.29 -0.19,-1.68 -0.13,-0.39 -0.31,-0.69 -0.54,-0.91 -0.23,-0.22 -0.53,-0.37 -0.88,-0.45 -0.27,-0.06 -0.79,-0.09 -1.56,-0.09l-0.85 0z"/>
    <polygon class="fil0" points="96.14,38.51 96.14,29.07 98.04,29.07 98.04,38.51 "/>
    <path class="fil0" d="M99.47 33.84c0,-0.96 0.14,-1.76 0.43,-2.42 0.21,-0.48 0.5,-0.91 0.87,-1.29 0.37,-0.38 0.78,-0.67 1.22,-0.85 0.59,-0.25 1.26,-0.37 2.03,-0.37 1.38,0 2.49,0.43 3.32,1.29 0.84,0.86 1.25,2.06 1.25,3.6 0,1.52 -0.41,2.72 -1.24,3.58 -0.82,0.86 -1.93,1.29 -3.31,1.29 -1.4,0 -2.51,-0.43 -3.33,-1.29 -0.83,-0.85 -1.24,-2.03 -1.24,-3.54zm1.96 -0.06c0,1.07 0.24,1.88 0.73,2.43 0.5,0.55 1.12,0.83 1.88,0.83 0.75,0 1.38,-0.27 1.86,-0.82 0.49,-0.55 0.73,-1.37 0.73,-2.47 0,-1.08 -0.24,-1.88 -0.71,-2.42 -0.47,-0.53 -1.1,-0.79 -1.88,-0.79 -0.79,0 -1.42,0.27 -1.9,0.8 -0.47,0.54 -0.71,1.35 -0.71,2.44z"/>
    <path class="fil0" d="M116.09 35.04l1.84 0.58c-0.28,1.03 -0.75,1.8 -1.4,2.3 -0.66,0.5 -1.49,0.75 -2.5,0.75 -1.25,0 -2.28,-0.43 -3.08,-1.29 -0.81,-0.85 -1.21,-2.03 -1.21,-3.51 0,-1.57 0.41,-2.79 1.21,-3.66 0.81,-0.87 1.87,-1.3 3.19,-1.3 1.15,0 2.09,0.34 2.81,1.02 0.43,0.4 0.75,0.98 0.96,1.74l-1.88 0.45c-0.11,-0.49 -0.34,-0.88 -0.7,-1.16 -0.35,-0.28 -0.78,-0.42 -1.28,-0.42 -0.7,0 -1.27,0.25 -1.7,0.75 -0.43,0.5 -0.65,1.31 -0.65,2.44 0,1.19 0.21,2.04 0.64,2.55 0.43,0.51 0.98,0.76 1.67,0.76 0.5,0 0.94,-0.16 1.3,-0.49 0.36,-0.32 0.62,-0.82 0.78,-1.51z"/>
    <polygon class="fil0" points="119.57,38.51 119.57,29.07 126.54,29.07 126.54,30.66 121.46,30.66 121.46,32.76 126.19,32.76 126.19,34.35 121.46,34.35 121.46,36.91 126.72,36.91 126.72,38.51 "/>
    <polygon class="fil0" points="128.35,38.51 128.35,29.07 130.2,29.07 134.05,35.37 134.05,29.07 135.81,29.07 135.81,38.51 133.91,38.51 130.11,32.35 130.11,38.51 "/>
    <polygon class="fil0" points="139.94,38.51 139.94,30.66 137.15,30.66 137.15,29.07 144.62,29.07 144.62,30.66 141.84,30.66 141.84,38.51 "/>
    <polygon class="fil0" points="145.85,38.51 145.85,29.07 152.82,29.07 152.82,30.66 147.75,30.66 147.75,32.76 152.47,32.76 152.47,34.35 147.75,34.35 147.75,36.91 153,36.91 153,38.51 "/>
    <path class="fil0" d="M154.62 38.51l0 -9.44 4 0c1,0 1.73,0.08 2.19,0.25 0.45,0.17 0.82,0.47 1.09,0.91 0.28,0.43 0.41,0.93 0.41,1.48 0,0.71 -0.21,1.3 -0.62,1.76 -0.41,0.46 -1.04,0.75 -1.86,0.87 0.41,0.24 0.75,0.51 1.02,0.79 0.26,0.29 0.62,0.8 1.08,1.53l1.15 1.85 -2.28 0 -1.37 -2.06c-0.49,-0.73 -0.82,-1.19 -1,-1.39 -0.18,-0.19 -0.37,-0.32 -0.57,-0.39 -0.2,-0.07 -0.52,-0.1 -0.96,-0.1l-0.38 0 0 3.94 -1.9 0zm1.9 -5.45l1.4 0c0.91,0 1.48,-0.04 1.71,-0.12 0.23,-0.07 0.4,-0.21 0.53,-0.4 0.13,-0.19 0.2,-0.42 0.2,-0.7 0,-0.32 -0.09,-0.58 -0.26,-0.77 -0.17,-0.2 -0.41,-0.32 -0.71,-0.37 -0.16,-0.02 -0.62,-0.04 -1.39,-0.04l-1.48 0 0 2.4z"/>
   </g>
   <path class="fil1" d="M46.14 21.16c1.49,-5.28 2.98,-10.56 4.48,-15.84 -7.77,0.19 -14.62,-2.29 -21.84,-4.1 -3.81,-0.95 -6.94,-1.66 -10.87,-0.9 -3.17,0.61 -5.88,2 -8.19,4.2 -6,6.49 -5.9,12.91 -9.66,21.35 4.01,0.22 6.88,-0.58 7.84,-2.66 4.88,-9.33 13.01,-9.57 19.46,-1.62 5.66,-7.28 11.95,-6.99 18.78,-0.43zm-39.26 5.04c0.26,4.83 2.11,8.62 4.7,12.3l-3.41 11.56c-2.18,6.48 -9.68,4.46 -7.9,-2.57l6.61 -21.29zm11.95 20.43l-4.9 16.27c-2.19,7.19 -9.91,5.6 -7.99,-1.5l6.49 -21.94c1.87,2.52 3.93,4.95 6.4,7.17zm-2.97 14.34c-2.04,6.61 4.65,8.88 7.44,3.43 1.28,-3.96 2.56,-7.92 3.84,-11.88 -2.75,-1.26 -5.09,-2.95 -7.24,-4.82l-4.04 13.27zm19.68 -18.98l0 0c2.14,0.64 3.36,2.89 2.71,5.01l-3.06 9.97c-0.65,2.11 -2.93,3.32 -5.06,2.68l0 0c-2.14,-0.64 -3.36,-2.89 -2.71,-5.01l3.05 -9.97c0.65,-2.11 2.93,-3.32 5.07,-2.68z"/>
  </g>
 </g>
</svg>
