<?xml version="1.0" encoding="UTF-8"?>
<!DOCTYPE svg PUBLIC "-//W3C//DTD SVG 1.1//EN" "http://www.w3.org/Graphics/SVG/1.1/DTD/svg11.dtd">
<!-- Creator: CorelDRAW 2018 (64 Bit Versão de avaliação) -->
<svg xmlns="http://www.w3.org/2000/svg" xml:space="preserve" width="1000px" height="290px" version="1.1" style="shape-rendering:geometricPrecision; text-rendering:geometricPrecision; image-rendering:optimizeQuality; fill-rule:evenodd; clip-rule:evenodd"
viewBox="0 0 1082.03 314.02"
 xmlns:xlink="http://www.w3.org/1999/xlink">
 <defs>
  <style type="text/css">
   <![CDATA[
    .fil2 {fill:none}
    .fil1 {fill:#3234AD}
    .fil0 {fill:#3234AD;fill-rule:nonzero}
   ]]>
  </style>
 </defs>
 <g id="Camada_x0020_1">
  <metadata id="CorelCorpID_0Corel-Layer"/>
  <g id="_2239114729808">
   <g>
    <g>
     <path class="fil0" d="M520.36 81.9l5.15 1.64c-0.79,2.88 -2.1,5.02 -3.94,6.42 -1.83,1.4 -4.17,2.1 -6.99,2.1 -3.5,0 -6.37,-1.2 -8.62,-3.59 -2.25,-2.4 -3.37,-5.67 -3.37,-9.82 0,-4.4 1.13,-7.81 3.39,-10.25 2.26,-2.43 5.23,-3.64 8.92,-3.64 3.22,0 5.83,0.95 7.84,2.86 1.21,1.13 2.1,2.75 2.7,4.86l-5.26 1.27c-0.31,-1.38 -0.96,-2.46 -1.95,-3.25 -0.99,-0.79 -2.19,-1.19 -3.6,-1.19 -1.95,0 -3.53,0.7 -4.75,2.11 -1.21,1.4 -1.82,3.68 -1.82,6.83 0,3.33 0.6,5.71 1.8,7.13 1.19,1.42 2.75,2.13 4.66,2.13 1.42,0 2.63,-0.45 3.65,-1.36 1.01,-0.9 1.74,-2.32 2.19,-4.25z"/>
     <path class="fil0" d="M553.8 91.61l-5.78 0 -2.3 -6 -10.52 0 -2.17 6 -5.64 0 10.26 -26.41 5.61 0 10.54 26.41zm-9.78 -10.44l-3.63 -9.8 -3.55 9.8 7.18 0z"/>
     <path class="fil0" d="M556.63 91.61l0 -26.41 11.19 0c2.82,0 4.86,0.24 6.13,0.72 1.27,0.47 2.3,1.31 3.06,2.52 0.77,1.22 1.15,2.61 1.15,4.17 0,1.98 -0.58,3.62 -1.74,4.91 -1.16,1.29 -2.9,2.1 -5.21,2.44 1.15,0.67 2.1,1.41 2.85,2.21 0.75,0.81 1.75,2.24 3.02,4.29l3.22 5.15 -6.36 0 -3.84 -5.75c-1.36,-2.05 -2.3,-3.34 -2.8,-3.88 -0.5,-0.53 -1.03,-0.89 -1.6,-1.1 -0.56,-0.19 -1.45,-0.29 -2.67,-0.29l-1.08 0 0 11.02 -5.32 0zm5.32 -15.24l3.93 0c2.55,0 4.14,-0.1 4.78,-0.32 0.63,-0.21 1.13,-0.59 1.49,-1.12 0.35,-0.53 0.54,-1.18 0.54,-1.98 0,-0.89 -0.24,-1.6 -0.71,-2.15 -0.47,-0.55 -1.14,-0.89 -2.01,-1.04 -0.43,-0.05 -1.72,-0.09 -3.88,-0.09l-4.14 0 0 6.7z"/>
     <path class="fil0" d="M583.15 65.2l9.72 0c2.18,0 3.85,0.17 5,0.51 1.55,0.45 2.87,1.27 3.97,2.43 1.1,1.17 1.94,2.59 2.51,4.28 0.57,1.69 0.86,3.77 0.86,6.24 0,2.17 -0.27,4.05 -0.81,5.62 -0.65,1.92 -1.59,3.48 -2.81,4.66 -0.92,0.91 -2.17,1.61 -3.74,2.11 -1.17,0.38 -2.74,0.56 -4.7,0.56l-10 0 0 -26.41zm5.32 4.47l0 17.49 3.96 0c1.48,0 2.56,-0.08 3.22,-0.25 0.86,-0.22 1.57,-0.58 2.14,-1.1 0.57,-0.51 1.03,-1.37 1.39,-2.55 0.36,-1.18 0.54,-2.79 0.54,-4.84 0,-2.04 -0.18,-3.6 -0.54,-4.69 -0.36,-1.1 -0.86,-1.95 -1.5,-2.56 -0.65,-0.62 -1.47,-1.03 -2.47,-1.24 -0.74,-0.17 -2.19,-0.26 -4.36,-0.26l-2.38 0z"/>
     <polygon class="fil0" points="609.56,91.61 609.56,65.2 614.87,65.2 614.87,91.61 "/>
     <path class="fil0" d="M618.86 78.57c0,-2.69 0.4,-4.95 1.2,-6.77 0.6,-1.34 1.41,-2.56 2.45,-3.63 1.04,-1.06 2.17,-1.85 3.4,-2.37 1.64,-0.7 3.53,-1.04 5.67,-1.04 3.88,0 6.98,1.2 9.31,3.62 2.33,2.41 3.49,5.76 3.49,10.06 0,4.27 -1.15,7.6 -3.46,10.01 -2.31,2.41 -5.4,3.61 -9.26,3.61 -3.92,0 -7.03,-1.2 -9.34,-3.59 -2.31,-2.4 -3.46,-5.7 -3.46,-9.9zm5.47 -0.18c0,2.99 0.69,5.26 2.06,6.8 1.38,1.55 3.13,2.32 5.25,2.32 2.11,0 3.85,-0.77 5.21,-2.3 1.36,-1.53 2.04,-3.83 2.04,-6.89 0,-3.03 -0.66,-5.28 -1.98,-6.78 -1.32,-1.48 -3.08,-2.23 -5.27,-2.23 -2.19,0 -3.96,0.76 -5.3,2.26 -1.34,1.51 -2.01,3.78 -2.01,6.82z"/>
     <path class="fil0" d="M665.37 81.9l5.15 1.64c-0.79,2.88 -2.1,5.02 -3.94,6.42 -1.83,1.4 -4.17,2.1 -6.99,2.1 -3.5,0 -6.37,-1.2 -8.62,-3.59 -2.25,-2.4 -3.37,-5.67 -3.37,-9.82 0,-4.4 1.13,-7.81 3.39,-10.25 2.26,-2.43 5.23,-3.64 8.92,-3.64 3.22,0 5.83,0.95 7.84,2.86 1.21,1.13 2.1,2.75 2.7,4.86l-5.26 1.27c-0.31,-1.38 -0.96,-2.46 -1.95,-3.25 -0.99,-0.79 -2.19,-1.19 -3.6,-1.19 -1.95,0 -3.53,0.7 -4.75,2.11 -1.21,1.4 -1.82,3.68 -1.82,6.83 0,3.33 0.6,5.71 1.8,7.13 1.19,1.42 2.75,2.13 4.66,2.13 1.42,0 2.63,-0.45 3.65,-1.36 1.01,-0.9 1.74,-2.32 2.19,-4.25z"/>
     <polygon class="fil0" points="675.08,91.61 675.08,65.2 694.59,65.2 694.59,69.67 680.39,69.67 680.39,75.53 693.61,75.53 693.61,79.97 680.39,79.97 680.39,87.16 695.09,87.16 695.09,91.61 "/>
     <polygon class="fil0" points="699.65,91.61 699.65,65.2 704.83,65.2 715.6,82.84 715.6,65.2 720.54,65.2 720.54,91.61 715.2,91.61 704.59,74.39 704.59,91.61 "/>
     <polygon class="fil0" points="732.07,91.61 732.07,69.67 724.27,69.67 724.27,65.2 745.18,65.2 745.18,69.67 737.39,69.67 737.39,91.61 "/>
     <polygon class="fil0" points="748.61,91.61 748.61,65.2 768.12,65.2 768.12,69.67 753.92,69.67 753.92,75.53 767.13,75.53 767.13,79.97 753.92,79.97 753.92,87.16 768.62,87.16 768.62,91.61 "/>
     <path class="fil0" d="M773.15 91.61l0 -26.41 11.18 0c2.82,0 4.86,0.24 6.13,0.72 1.28,0.47 2.3,1.31 3.06,2.52 0.77,1.22 1.15,2.61 1.15,4.17 0,1.98 -0.58,3.62 -1.74,4.91 -1.16,1.29 -2.9,2.1 -5.21,2.44 1.15,0.67 2.1,1.41 2.85,2.21 0.75,0.81 1.75,2.24 3.02,4.29l3.22 5.15 -6.36 0 -3.84 -5.75c-1.36,-2.05 -2.29,-3.34 -2.8,-3.88 -0.5,-0.53 -1.03,-0.89 -1.6,-1.1 -0.56,-0.19 -1.45,-0.29 -2.67,-0.29l-1.08 0 0 11.02 -5.31 0zm5.31 -15.24l3.93 0c2.55,0 4.14,-0.1 4.78,-0.32 0.63,-0.21 1.13,-0.59 1.49,-1.12 0.35,-0.53 0.54,-1.18 0.54,-1.98 0,-0.89 -0.24,-1.6 -0.71,-2.15 -0.47,-0.55 -1.14,-0.89 -2.01,-1.04 -0.42,-0.05 -1.72,-0.09 -3.87,-0.09l-4.15 0 0 6.7z"/>
    </g>
    <path class="fil1" d="M184.26 108.21c5.74,-20.3 11.48,-40.6 17.22,-60.9 -29.88,0.73 -56.18,-8.8 -83.93,-15.75 -14.65,-3.66 -26.7,-6.37 -41.82,-3.46 -12.19,2.36 -22.6,7.7 -31.48,16.15 -23.05,24.96 -22.67,49.63 -37.13,82.06 15.43,0.84 26.45,-2.23 30.16,-10.21 18.73,-35.87 50,-36.81 74.81,-6.25 21.72,-27.97 45.92,-26.85 72.17,-1.64zm-150.91 19.36c1,18.59 8.08,33.14 18.05,47.29l-13.12 44.44c-8.37,24.91 -37.21,17.16 -30.34,-9.87l25.41 -81.86zm45.94 78.56l-18.87 62.55c-8.39,27.64 -38.08,21.54 -30.69,-5.77l24.95 -84.37c7.2,9.71 15.11,19.05 24.61,27.59zm-11.44 55.14c-7.83,25.4 17.89,34.13 28.62,13.17 4.92,-15.22 9.84,-30.44 14.76,-45.66 -10.58,-4.87 -19.57,-11.34 -27.84,-18.53l-15.54 51.02zm75.66 -72.98l0 0c8.22,2.47 12.91,11.11 10.42,19.24l-11.75 38.34c-2.49,8.13 -11.25,12.77 -19.48,10.3l0.01 0c-8.22,-2.46 -12.92,-11.11 -10.43,-19.23l11.76 -38.35c2.49,-8.13 11.25,-12.76 19.47,-10.3z"/>
    <g>
     <g>
      <path class="fil0" d="M256.1 129.84l-2.22 0.67c-0.67,0.2 -1.22,0.3 -1.68,0.3 -0.35,0 -0.64,-0.11 -0.87,-0.35 -0.24,-0.23 -0.36,-0.52 -0.36,-0.86 0,-0.53 0.37,-1.01 1.1,-1.45 0.75,-0.45 2.01,-0.96 3.81,-1.55 7.09,-2.21 13.81,-3.32 20.13,-3.32 4.79,0 8.52,0.79 11.2,2.39 1.36,0.78 2.45,1.85 3.27,3.22 0.93,1.51 1.39,3 1.39,4.46 0,3.96 -1.76,8.43 -5.31,13.4 -4.11,5.73 -9.62,10.32 -16.54,13.75 -5.6,2.8 -11.1,4.2 -16.48,4.2 -2.73,0 -4.98,-0.52 -6.76,-1.58 -1.77,-1.05 -2.65,-2.39 -2.65,-4 0,-1.6 0.78,-4.16 2.32,-7.65 0.32,-0.75 1.33,-2.78 3.03,-6.09 1.7,-3.32 2.79,-5.38 3.27,-6.18l4.72 -8.14c0.27,-0.47 0.41,-0.79 0.41,-0.97 0,-0.34 -0.2,-0.51 -0.58,-0.51 -0.17,0 -0.56,0.09 -1.2,0.26zm17.59 -2.3c-2.85,0 -4.9,0.25 -6.15,0.75 -0.68,0.29 -1.61,1.31 -2.76,3.07 -1.17,1.75 -2.72,4.52 -4.69,8.29 -4.78,9.14 -7.17,14.66 -7.17,16.57 0,2.2 1.92,3.3 5.77,3.3 3.45,0 7.07,-1.13 10.87,-3.36 4.14,-2.44 7.69,-5.76 10.64,-9.99 2.95,-4.19 4.41,-7.76 4.41,-10.72 0,-2.58 -0.93,-4.54 -2.78,-5.88 -1.86,-1.35 -4.57,-2.03 -8.14,-2.03zm18.43 27l7.44 -14.01c0.76,-1.41 1.24,-2.25 1.46,-2.53 0.22,-0.28 0.57,-0.54 1.07,-0.78 2.37,-1.1 4.06,-1.66 5.06,-1.66 0.85,0 1.27,0.35 1.27,1.06 0,0.51 -0.28,1.17 -0.84,1.97 -0.42,0.63 -0.63,1 -0.63,1.12 0,0.24 0.13,0.36 0.37,0.36 0.16,0 0.7,-0.29 1.61,-0.85 3.73,-2.36 6.93,-3.53 9.6,-3.53 1.16,0 2.17,0.2 3.03,0.6 0.87,0.41 1.31,0.87 1.31,1.39 0,0.65 -0.73,1.44 -2.16,2.39 -1.66,1.11 -2.86,1.67 -3.62,1.67 -0.22,0 -0.5,-0.09 -0.81,-0.28 -1.07,-0.6 -2.07,-0.9 -3.01,-0.9 -1.13,0 -2.39,0.32 -3.75,0.95 -1.37,0.64 -2.52,1.43 -3.49,2.4 -1.63,1.69 -3.4,4.27 -5.28,7.75 -1.9,3.47 -3.25,6.64 -4.07,9.49 -0.13,0.49 -0.39,0.88 -0.75,1.2 -0.36,0.3 -1.07,0.75 -2.11,1.33 -1.62,0.89 -2.82,1.33 -3.59,1.33 -1.09,0 -1.64,-0.57 -1.64,-1.72 0,-1.38 1.18,-4.3 3.53,-8.75zm22.78 1.77c1.17,0 2.14,0.32 2.88,0.96 0.73,0.65 1.11,1.49 1.11,2.51 0,0.72 -0.25,1.52 -0.73,2.37 -0.47,0.85 -1.08,1.6 -1.8,2.22 -1.39,1.17 -2.97,1.75 -4.71,1.75 -1.16,0 -2.09,-0.32 -2.8,-0.94 -0.71,-0.64 -1.06,-1.47 -1.06,-2.5 0,-1.61 0.73,-3.06 2.19,-4.35 1.45,-1.33 3.09,-2 4.92,-2.02zm27.33 -1.82c0.78,-0.34 1.72,-0.86 2.82,-1.55 1.38,-0.88 2.33,-1.32 2.8,-1.32 0.38,0 0.68,0.14 0.93,0.42 0.25,0.29 0.38,0.63 0.38,1.06 0,0.02 -0.03,0.25 -0.07,0.72 -0.05,0.24 -0.07,0.61 -0.07,1.12 0,1.43 0.5,2.64 1.51,3.64 1.01,1 2.26,1.49 3.73,1.49 2.31,0 4.34,-1.05 6.11,-3.14 1.23,-1.42 2.71,-4.19 4.44,-8.31l4.83 -11.48c2.45,-5.75 4.31,-9.25 5.6,-10.5 0.64,-0.61 1.76,-1.19 3.36,-1.71 1.61,-0.53 3.04,-0.79 4.32,-0.79 1.27,0 1.91,0.38 1.91,1.15 0,0.28 -0.28,0.8 -0.85,1.57 -1.57,2.18 -3.9,6.55 -7.01,13.1l-3.21 7.05c-1.59,3.52 -3.26,6.39 -4.99,8.61 -1.74,2.21 -3.85,4.13 -6.33,5.79 -4.36,2.89 -8.32,4.34 -11.85,4.34 -2.81,0 -5.07,-0.88 -6.82,-2.65 -1.43,-1.47 -2.15,-3.21 -2.15,-5.23 0,-1.11 0.21,-2.23 0.61,-3.38zm73.62 -14.3l-6.78 12.58c-1.65,2.99 -2.48,5.28 -2.48,6.85 0,0.6 0.04,1.1 0.12,1.5 0.06,0.32 0.09,0.55 0.09,0.67 0,0.58 -0.82,1.31 -2.48,2.17 -1.49,0.78 -2.6,1.17 -3.35,1.17 -0.6,0 -1.12,-0.32 -1.55,-0.99 -0.44,-0.67 -0.64,-1.45 -0.64,-2.37 0,-0.17 0,-0.35 0,-0.51 0.04,-0.59 -0.06,-0.88 -0.31,-0.88 -0.18,0 -0.39,0.1 -0.61,0.3 -1.46,1.18 -3.26,2.2 -5.42,3.06 -2.16,0.85 -4.04,1.27 -5.63,1.27 -2.16,0 -3.86,-0.56 -5.09,-1.66 -1.24,-1.1 -1.86,-2.61 -1.86,-4.51 0,-1.4 0.36,-2.94 1.08,-4.58 1.22,-2.77 2.11,-4.63 2.65,-5.6l3.16 -5.56c0.82,-1.34 1.34,-2.56 1.57,-3.67 0.11,-0.48 0.31,-0.84 0.58,-1.06 0.27,-0.22 0.81,-0.47 1.64,-0.76 1.81,-0.63 3.24,-0.94 4.29,-0.94 1.14,0 1.71,0.5 1.71,1.49 0,0.42 -0.32,1.19 -0.99,2.32l-1.89 3.31 -1.4 2.55c-3.2,5.91 -4.79,9.47 -4.79,10.68 0,0.8 0.29,1.46 0.88,1.97 0.6,0.52 1.34,0.77 2.25,0.77 1.58,0 3.22,-0.47 4.89,-1.43 1.68,-0.95 3.23,-2.29 4.63,-4 1.2,-1.43 2.7,-3.71 4.5,-6.86 1.78,-3.15 3.16,-5.9 4.14,-8.23 0.16,-0.4 0.38,-0.69 0.66,-0.88 0.29,-0.17 0.91,-0.44 1.86,-0.78 1.83,-0.65 3.26,-0.97 4.28,-0.97 0.86,0 1.29,0.38 1.29,1.16 0,0.43 -0.33,1.23 -1,2.42zm16.13 -0.69l-4.77 9.56 -1.03 2.17 -1.16 2.38c-1.5,3.42 -2.34,5.52 -2.52,6.33 -0.17,0.73 -0.34,1.23 -0.53,1.52 -0.19,0.3 -0.61,0.64 -1.24,1.04 -2.35,1.51 -3.94,2.26 -4.78,2.26 -0.46,0 -0.86,-0.21 -1.2,-0.65 -0.34,-0.43 -0.51,-0.93 -0.51,-1.52 0,-1.36 1.59,-5.2 4.78,-11.51 0.54,-1.12 2.44,-4.98 5.7,-11.58l4.91 -9.07c0.7,-1.25 1.19,-2.15 1.45,-2.72 0.36,-0.76 0.68,-1.26 0.95,-1.51 0.25,-0.24 0.71,-0.47 1.33,-0.69 2.27,-0.71 3.91,-1.06 4.92,-1.06 1,0 1.5,0.35 1.5,1.06 0,0.36 -0.24,0.9 -0.74,1.6 -0.77,1.14 -1.7,2.68 -2.78,4.62 -1.93,3.47 -3.35,6.07 -4.28,7.77zm17.2 0.32l-2.86 4.88c-4.72,8.17 -7.34,13.6 -7.84,16.3 -0.17,0.68 -0.8,1.35 -1.87,2 -2.35,1.42 -3.95,2.13 -4.79,2.13 -0.48,0 -0.87,-0.15 -1.17,-0.46 -0.29,-0.32 -0.44,-0.72 -0.44,-1.22 0,-2.13 1.85,-6.49 5.56,-13.1l4.51 -8.01c0.54,-0.98 1.08,-1.98 1.6,-3.01 0.44,-0.81 0.82,-1.39 1.16,-1.7 0.34,-0.31 0.87,-0.58 1.61,-0.79 2.16,-0.65 3.57,-0.97 4.23,-0.97 0.96,0 1.43,0.45 1.43,1.36 0,0.42 -0.37,1.29 -1.13,2.59zm5.01 -18.46c0.45,0 0.83,0.13 1.13,0.36 0.29,0.24 0.41,0.54 0.37,0.88 -0.12,0.92 -0.5,1.94 -1.18,3.08 -0.66,1.13 -1.37,1.97 -2.11,2.51 -0.72,0.5 -1.73,1 -3.06,1.53 -1.34,0.52 -2.31,0.78 -2.9,0.78 -0.72,0 -1.08,-0.36 -1.08,-1.08 0,-0.66 0.38,-1.64 1.14,-2.96 0.75,-1.31 1.52,-2.3 2.29,-2.96 0.57,-0.48 1.44,-0.96 2.62,-1.43 1.17,-0.47 2.1,-0.71 2.78,-0.71zm12.25 40.54c-4.23,2.52 -8.46,3.79 -12.71,3.79 -2.22,0 -3.95,-0.36 -5.2,-1.09 -0.75,-0.42 -1.36,-1.01 -1.82,-1.77 -0.47,-0.75 -0.7,-1.52 -0.7,-2.31 0,-2.47 1.24,-4.88 3.73,-7.21 2.49,-2.32 5.65,-4.03 9.46,-5.12 3.08,-0.89 6.18,-1.33 9.27,-1.33 0.27,0 0.54,0.01 0.78,0.03 1.5,0.06 2.29,0.1 2.39,0.1 0.95,0 1.78,-0.35 2.45,-1.05 0.69,-0.71 1.03,-1.54 1.03,-2.51 0,-1.1 -0.49,-1.95 -1.47,-2.57 -0.98,-0.6 -2.35,-0.91 -4.13,-0.91 -3.38,0 -7.06,0.89 -11.04,2.69 -0.66,0.3 -1.2,0.46 -1.6,0.46 -0.69,0 -1.03,-0.29 -1.03,-0.88 0,-0.86 0.86,-1.82 2.6,-2.88 3.51,-2.19 8.16,-3.28 13.93,-3.28 3.05,0 5.37,0.46 6.96,1.39 0.79,0.44 1.44,1.06 1.94,1.86 0.5,0.8 0.75,1.61 0.75,2.44 0,1.85 -1.03,4.67 -3.07,8.47l-4.96 9.15c-0.47,0.96 -0.71,2.01 -0.71,3.13 0,0.42 -0.67,1.06 -2.04,1.91 -1.36,0.86 -2.38,1.28 -3.06,1.28 -0.49,0 -0.95,-0.25 -1.35,-0.75 -0.39,-0.5 -0.59,-1.07 -0.59,-1.72 0,-0.34 0.06,-0.78 0.19,-1.32zm-0.62 -11.58c-1.48,0 -3,0.22 -4.58,0.68 -1.57,0.45 -2.97,1.08 -4.17,1.86 -2.67,1.7 -4.01,3.57 -4.01,5.61 0,0.97 0.39,1.75 1.19,2.33 0.8,0.59 1.86,0.88 3.19,0.88 1.43,0 2.98,-0.27 4.63,-0.8 1.66,-0.52 3.17,-1.22 4.53,-2.11 1.2,-0.77 2.17,-1.65 2.92,-2.64 0.76,-0.99 1.13,-1.88 1.13,-2.69 0,-0.97 -0.43,-1.73 -1.28,-2.28 -0.85,-0.54 -2.04,-0.82 -3.55,-0.84zm52.65 -1.62l-2.92 5.66c-1.29,2.64 -2.11,4.75 -2.48,6.31 -0.13,0.65 -0.33,1.12 -0.57,1.43 -0.26,0.32 -0.73,0.67 -1.4,1.08 -2.23,1.35 -3.78,2.02 -4.67,2.02 -1.07,0 -1.6,-0.63 -1.6,-1.88 0,-0.59 0.27,-1.64 0.8,-3.14 0.52,-1.51 1.13,-2.92 1.82,-4.24l2.4 -4.68c1.52,-2.88 2.48,-4.79 2.89,-5.75 0.41,-0.94 0.6,-1.79 0.6,-2.51 0,-0.8 -0.31,-1.46 -0.95,-1.97 -0.64,-0.52 -1.47,-0.77 -2.49,-0.77 -1.34,0 -2.93,0.43 -4.77,1.29 -1.84,0.87 -3.57,1.98 -5.18,3.35 -2.09,1.76 -4.09,4.09 -6.01,6.99 -1.92,2.9 -3.27,5.62 -4.05,8.15 -0.29,0.97 -0.55,1.58 -0.77,1.84 -0.21,0.26 -0.72,0.61 -1.51,1.05 -2.52,1.39 -4.12,2.08 -4.8,2.08 -0.41,0 -0.75,-0.15 -1.03,-0.46 -0.27,-0.32 -0.41,-0.71 -0.41,-1.2 0,-2 2.56,-7.57 7.69,-16.71l2.7 -4.84c0.53,-0.87 0.89,-1.56 1.1,-2.09 0.36,-0.95 0.72,-1.58 1.08,-1.9 0.35,-0.32 1.02,-0.63 2.04,-0.91 2.02,-0.61 3.32,-0.9 3.89,-0.9 1.07,0 1.61,0.43 1.61,1.29 0,0.55 -0.35,1.38 -1.04,2.49l-1.16 1.84c-0.07,0.11 -0.11,0.2 -0.11,0.28 0,0.18 0.11,0.27 0.31,0.27 0.11,0 0.39,-0.15 0.85,-0.45 2.5,-1.69 5.04,-3.04 7.65,-4.07 2.62,-1.02 4.85,-1.53 6.71,-1.53 1.85,0 3.33,0.49 4.42,1.47 1.09,0.99 1.63,2.31 1.63,3.98 0,1.78 -0.75,4.16 -2.27,7.13zm28.34 -12.83c2.85,0 5.05,0.67 6.61,2.01 1.56,1.34 2.34,3.24 2.34,5.71 0,2.25 -0.74,4.65 -2.23,7.19 -1.49,2.54 -3.59,4.97 -6.26,7.29 -2.83,2.44 -5.74,4.31 -8.75,5.59 -2.98,1.31 -5.82,1.97 -8.53,1.97 -2.43,0 -4.41,-0.66 -5.93,-1.98 -1.53,-1.31 -2.29,-3 -2.29,-5.08 0,-2.93 1.17,-6.17 3.51,-9.73 2.41,-3.67 5.46,-6.63 9.11,-8.89 4.3,-2.7 8.45,-4.06 12.42,-4.08zm-3.36 4.01c-1.7,0 -3.48,0.52 -5.31,1.56 -1.86,1.03 -3.54,2.45 -5.09,4.26 -1.35,1.56 -2.4,3.25 -3.16,5.07 -0.76,1.81 -1.14,3.52 -1.14,5.12 0,1.37 0.45,2.48 1.35,3.34 0.89,0.85 2.06,1.27 3.5,1.27 1.65,0 3.43,-0.48 5.34,-1.44 1.89,-0.96 3.58,-2.24 5.06,-3.82 1.39,-1.51 2.52,-3.2 3.4,-5.09 0.87,-1.89 1.31,-3.56 1.31,-5 0,-1.62 -0.47,-2.9 -1.38,-3.82 -0.92,-0.92 -2.22,-1.4 -3.88,-1.45zm52.42 1.58l3.83 -0.39c0.6,-0.05 2.12,-0.16 4.59,-0.3 2.45,-0.13 3.9,-0.21 4.36,-0.21 1.39,0 2.22,0.02 2.5,0.07 0.66,0.1 0.99,0.36 0.99,0.78 0,0.38 -0.55,0.96 -1.64,1.72 -1.08,0.76 -2.19,1.35 -3.31,1.75 -1.22,0.44 -2.9,0.68 -5.03,0.75l-6.73 0.23c-1.53,0.06 -2.64,0.35 -3.3,0.87 -0.65,0.51 -1.41,1.64 -2.25,3.41 -1.02,2.09 -1.99,5.23 -2.89,9.41 -0.19,0.76 -0.45,1.28 -0.79,1.58 -0.34,0.29 -1.31,0.81 -2.9,1.55 -2.7,1.26 -4.42,1.9 -5.14,1.9 -0.67,0 -0.99,-0.38 -0.99,-1.14 0,-1.77 1,-5.16 3,-10.14 2.01,-4.99 4.34,-9.9 7.01,-14.74l3.03 -5.53c0.52,-0.91 0.78,-1.58 0.78,-1.98 0,-0.32 -0.11,-0.69 -0.32,-1.11 -0.21,-0.4 -0.31,-0.67 -0.31,-0.86 0,-0.72 0.56,-1.44 1.69,-2.17 1.11,-0.72 2.44,-1.21 3.96,-1.47 2.09,-0.36 5.12,-0.68 9.09,-0.95 3.97,-0.27 7.6,-0.41 10.87,-0.41 1.91,0 3.22,0.06 3.89,0.19 0.67,0.11 1,0.36 1,0.72 0,0.58 -0.94,1.52 -2.82,2.81 -0.91,0.61 -1.85,1.03 -2.82,1.24 -0.96,0.22 -2.58,0.36 -4.86,0.44l-5.69 0.24c-2.15,0.08 -3.64,0.39 -4.44,0.93 -0.82,0.53 -1.78,1.87 -2.92,4.02 -1.89,3.5 -2.83,5.57 -2.83,6.18 0,0.42 0.35,0.64 1.06,0.64 0.11,0 0.23,-0.01 0.33,-0.03zm30.45 -1.64l-2.86 4.88c-4.73,8.17 -7.34,13.6 -7.84,16.3 -0.18,0.68 -0.81,1.35 -1.88,2 -2.35,1.42 -3.94,2.13 -4.79,2.13 -0.48,0 -0.86,-0.15 -1.16,-0.46 -0.29,-0.32 -0.44,-0.72 -0.44,-1.22 0,-2.13 1.84,-6.49 5.56,-13.1l4.51 -8.01c0.53,-0.98 1.07,-1.98 1.59,-3.01 0.45,-0.81 0.83,-1.39 1.17,-1.7 0.33,-0.31 0.87,-0.58 1.6,-0.79 2.17,-0.65 3.57,-0.97 4.24,-0.97 0.95,0 1.43,0.45 1.43,1.36 0,0.42 -0.38,1.29 -1.13,2.59zm5 -18.46c0.46,0 0.84,0.13 1.13,0.36 0.29,0.24 0.42,0.54 0.37,0.88 -0.11,0.92 -0.5,1.94 -1.17,3.08 -0.67,1.13 -1.38,1.97 -2.12,2.51 -0.71,0.5 -1.72,1 -3.06,1.53 -1.34,0.52 -2.3,0.78 -2.9,0.78 -0.72,0 -1.08,-0.36 -1.08,-1.08 0,-0.66 0.39,-1.64 1.14,-2.96 0.76,-1.31 1.53,-2.3 2.29,-2.96 0.57,-0.48 1.45,-0.96 2.62,-1.43 1.18,-0.47 2.11,-0.71 2.78,-0.71zm19.31 14.51c2.85,0 5.05,0.67 6.61,2.01 1.56,1.34 2.34,3.24 2.34,5.71 0,2.25 -0.74,4.65 -2.23,7.19 -1.49,2.54 -3.59,4.97 -6.26,7.29 -2.83,2.44 -5.74,4.31 -8.75,5.59 -2.98,1.31 -5.82,1.97 -8.53,1.97 -2.43,0 -4.41,-0.66 -5.93,-1.98 -1.53,-1.31 -2.29,-3 -2.29,-5.08 0,-2.93 1.17,-6.17 3.51,-9.73 2.41,-3.67 5.46,-6.63 9.11,-8.89 4.3,-2.7 8.45,-4.06 12.42,-4.08zm-3.36 4.01c-1.7,0 -3.48,0.52 -5.32,1.56 -1.84,1.03 -3.53,2.45 -5.08,4.26 -1.35,1.56 -2.4,3.25 -3.16,5.07 -0.76,1.81 -1.14,3.52 -1.14,5.12 0,1.37 0.45,2.48 1.35,3.34 0.89,0.85 2.06,1.27 3.5,1.27 1.65,0 3.43,-0.48 5.34,-1.44 1.89,-0.96 3.58,-2.24 5.06,-3.82 1.39,-1.51 2.52,-3.2 3.4,-5.09 0.87,-1.89 1.31,-3.56 1.31,-5 0,-1.62 -0.47,-2.9 -1.38,-3.82 -0.92,-0.92 -2.21,-1.4 -3.88,-1.45zm14.52 14.66l7.45 -14.01c0.75,-1.41 1.23,-2.25 1.45,-2.53 0.22,-0.28 0.57,-0.54 1.07,-0.78 2.37,-1.1 4.06,-1.66 5.06,-1.66 0.85,0 1.27,0.35 1.27,1.06 0,0.51 -0.28,1.17 -0.84,1.97 -0.42,0.63 -0.63,1 -0.63,1.12 0,0.24 0.13,0.36 0.38,0.36 0.16,0 0.69,-0.29 1.6,-0.85 3.74,-2.36 6.94,-3.53 9.6,-3.53 1.16,0 2.18,0.2 3.04,0.6 0.87,0.41 1.3,0.87 1.3,1.39 0,0.65 -0.72,1.44 -2.15,2.39 -1.67,1.11 -2.87,1.67 -3.62,1.67 -0.22,0 -0.5,-0.09 -0.82,-0.28 -1.07,-0.6 -2.07,-0.9 -3.01,-0.9 -1.13,0 -2.38,0.32 -3.74,0.95 -1.38,0.64 -2.53,1.43 -3.49,2.4 -1.63,1.69 -3.4,4.27 -5.29,7.75 -1.89,3.47 -3.24,6.64 -4.07,9.49 -0.13,0.49 -0.38,0.88 -0.74,1.2 -0.36,0.3 -1.07,0.75 -2.12,1.33 -1.62,0.89 -2.82,1.33 -3.58,1.33 -1.1,0 -1.64,-0.57 -1.64,-1.72 0,-1.38 1.17,-4.3 3.52,-8.75zm30.17 -1.44c-1.32,0 -1.98,1.11 -1.98,3.33 0,1.45 0.52,2.6 1.58,3.46 1.05,0.86 2.45,1.29 4.19,1.29 4.53,0 9.11,-1.83 13.75,-5.48 0.79,-0.63 1.42,-0.94 1.9,-0.94 0.61,0 0.92,0.23 0.92,0.69 0,0.67 -0.64,1.65 -1.92,2.94 -1.29,1.31 -2.7,2.41 -4.25,3.32 -1.98,1.16 -4.25,2.11 -6.8,2.83 -2.58,0.73 -4.94,1.09 -7.09,1.09 -2.89,0 -5.2,-0.67 -6.93,-2.01 -1.74,-1.34 -2.61,-3.12 -2.61,-5.33 0,-3.67 1.56,-7.48 4.68,-11.4 2.6,-3.3 5.76,-5.9 9.44,-7.82 3.84,-1.96 7.47,-2.95 10.88,-2.95 2,0 3.61,0.45 4.81,1.36 1.09,0.82 1.6,1.88 1.53,3.19 -0.09,1.61 -0.99,3.32 -2.7,5.14 -1.72,1.82 -3.86,3.35 -6.44,4.57 -3.8,1.81 -7.35,2.72 -10.69,2.72l-2.27 0zm11.75 -13.15c-2.46,0 -5.07,1.31 -7.87,3.93 -0.96,0.9 -1.85,1.9 -2.65,3 -0.79,1.1 -1.19,1.86 -1.19,2.29 0,0.48 0.62,0.72 1.84,0.72 2.92,0 5.46,-0.47 7.59,-1.38 1.55,-0.68 2.84,-1.6 3.87,-2.75 1.05,-1.15 1.57,-2.25 1.57,-3.29 0,-0.78 -0.28,-1.39 -0.83,-1.83 -0.55,-0.45 -1.33,-0.67 -2.33,-0.69zm27.7 -0.45l-4.77 9.56 -1.03 2.17 -1.16 2.38c-1.5,3.42 -2.34,5.52 -2.52,6.33 -0.17,0.73 -0.34,1.23 -0.53,1.52 -0.19,0.3 -0.61,0.64 -1.24,1.04 -2.35,1.51 -3.95,2.26 -4.78,2.26 -0.46,0 -0.86,-0.21 -1.2,-0.65 -0.34,-0.43 -0.51,-0.93 -0.51,-1.52 0,-1.36 1.59,-5.2 4.78,-11.51 0.54,-1.12 2.44,-4.98 5.7,-11.58l4.91 -9.07c0.7,-1.25 1.19,-2.15 1.45,-2.72 0.36,-0.76 0.68,-1.26 0.94,-1.51 0.26,-0.24 0.71,-0.47 1.34,-0.69 2.27,-0.71 3.91,-1.06 4.92,-1.06 1,0 1.5,0.35 1.5,1.06 0,0.36 -0.24,0.9 -0.74,1.6 -0.77,1.14 -1.7,2.68 -2.78,4.62 -1.93,3.47 -3.35,6.07 -4.28,7.77zm16.39 0l-4.77 9.56 -1.02 2.17 -1.17 2.38c-1.5,3.42 -2.34,5.52 -2.52,6.33 -0.16,0.73 -0.34,1.23 -0.52,1.52 -0.2,0.3 -0.62,0.64 -1.25,1.04 -2.35,1.51 -3.94,2.26 -4.78,2.26 -0.46,0 -0.86,-0.21 -1.2,-0.65 -0.34,-0.43 -0.51,-0.93 -0.51,-1.52 0,-1.36 1.59,-5.2 4.78,-11.51 0.55,-1.12 2.44,-4.98 5.7,-11.58l4.91 -9.07c0.7,-1.25 1.19,-2.15 1.45,-2.72 0.36,-0.76 0.68,-1.26 0.95,-1.51 0.25,-0.24 0.71,-0.47 1.33,-0.69 2.27,-0.71 3.91,-1.06 4.93,-1.06 1,0 1.5,0.35 1.5,1.06 0,0.36 -0.25,0.9 -0.75,1.6 -0.77,1.14 -1.7,2.68 -2.78,4.62 -1.93,3.47 -3.35,6.07 -4.28,7.77zm17.21 0.32l-2.87 4.88c-4.72,8.17 -7.34,13.6 -7.84,16.3 -0.17,0.68 -0.8,1.35 -1.87,2 -2.35,1.42 -3.94,2.13 -4.79,2.13 -0.48,0 -0.86,-0.15 -1.17,-0.46 -0.29,-0.32 -0.44,-0.72 -0.44,-1.22 0,-2.13 1.85,-6.49 5.56,-13.1l4.52 -8.01c0.53,-0.98 1.07,-1.98 1.59,-3.01 0.44,-0.81 0.83,-1.39 1.16,-1.7 0.34,-0.31 0.87,-0.58 1.61,-0.79 2.16,-0.65 3.57,-0.97 4.23,-0.97 0.96,0 1.43,0.45 1.43,1.36 0,0.42 -0.37,1.29 -1.12,2.59zm5 -18.46c0.45,0 0.84,0.13 1.13,0.36 0.29,0.24 0.42,0.54 0.37,0.88 -0.12,0.92 -0.5,1.94 -1.18,3.08 -0.66,1.13 -1.37,1.97 -2.11,2.51 -0.71,0.5 -1.73,1 -3.06,1.53 -1.34,0.52 -2.31,0.78 -2.9,0.78 -0.72,0 -1.08,-0.36 -1.08,-1.08 0,-0.66 0.38,-1.64 1.14,-2.96 0.75,-1.31 1.52,-2.3 2.29,-2.96 0.57,-0.48 1.44,-0.96 2.62,-1.43 1.17,-0.47 2.1,-0.71 2.78,-0.71zm30.01 3.95c1.94,-0.13 3.17,-0.2 3.72,-0.24l19.05 -1.73c2.48,-0.22 5.48,-0.56 9.01,-1.05 0.47,-0.08 0.89,-0.12 1.25,-0.12 0.62,0 0.92,0.21 0.92,0.63 0,0.39 -0.44,0.94 -1.32,1.67 -0.9,0.74 -2.03,1.47 -3.43,2.22 -1.74,0.97 -3.89,1.55 -6.44,1.75l-4.29 0.36c-0.91,0.09 -1.5,0.23 -1.78,0.43 -0.27,0.2 -0.75,0.85 -1.43,1.96l-3.34 5.46c-2.24,3.6 -4.47,7.9 -6.73,12.9 -2.24,5 -3.42,8.24 -3.51,9.72 -0.06,1.01 -0.23,1.68 -0.51,2 -0.27,0.32 -1.02,0.76 -2.21,1.32 -3.19,1.45 -5.2,2.17 -6.04,2.17 -0.71,0 -1.06,-0.39 -1.06,-1.17 0,-1.49 1.02,-4.69 3.06,-9.6 2.04,-4.91 4.09,-9.15 6.19,-12.73l6 -10.22c0.16,-0.29 0.25,-0.5 0.25,-0.64 0,-0.32 -0.23,-0.48 -0.65,-0.46 -0.13,0 -0.37,0.03 -0.68,0.07l-9.81 1.05c-1.22,0.12 -2.02,0.18 -2.42,0.18 -1.1,0 -1.66,-0.25 -1.66,-0.78 0,-0.48 0.82,-1.27 2.46,-2.34 1.65,-1.07 3.45,-2.01 5.4,-2.81zm38.99 10.56c2.85,0 5.05,0.67 6.61,2.01 1.56,1.34 2.34,3.24 2.34,5.71 0,2.25 -0.75,4.65 -2.24,7.19 -1.49,2.54 -3.58,4.97 -6.26,7.29 -2.82,2.44 -5.73,4.31 -8.75,5.59 -2.97,1.31 -5.81,1.97 -8.52,1.97 -2.44,0 -4.41,-0.66 -5.94,-1.98 -1.52,-1.31 -2.29,-3 -2.29,-5.08 0,-2.93 1.18,-6.17 3.52,-9.73 2.4,-3.67 5.45,-6.63 9.1,-8.89 4.31,-2.7 8.45,-4.06 12.43,-4.08zm-3.36 4.01c-1.7,0 -3.48,0.52 -5.32,1.56 -1.85,1.03 -3.54,2.45 -5.08,4.26 -1.35,1.56 -2.4,3.25 -3.17,5.07 -0.75,1.81 -1.14,3.52 -1.14,5.12 0,1.37 0.46,2.48 1.35,3.34 0.9,0.85 2.06,1.27 3.5,1.27 1.66,0 3.44,-0.48 5.34,-1.44 1.9,-0.96 3.59,-2.24 5.06,-3.82 1.4,-1.51 2.53,-3.2 3.4,-5.09 0.87,-1.89 1.31,-3.56 1.31,-5 0,-1.62 -0.46,-2.9 -1.38,-3.82 -0.92,-0.92 -2.21,-1.4 -3.87,-1.45z"/>
      <path class="fil0" d="M906.32 149.72l-2.07 4.11c-1.28,2.49 -2.12,4.81 -2.52,6.96 -0.1,0.55 -0.27,0.96 -0.54,1.25 -0.25,0.3 -0.84,0.71 -1.74,1.25 -2.03,1.23 -3.48,1.84 -4.37,1.84 -0.46,0 -0.85,-0.19 -1.18,-0.57 -0.33,-0.38 -0.49,-0.85 -0.49,-1.42 0,-1.41 1.08,-4.21 3.24,-8.4l2.19 -4.13c1.26,-2.45 2.07,-4.15 2.45,-5.09 0.38,-0.93 0.57,-1.81 0.57,-2.61 0,-1.81 -1.18,-2.72 -3.52,-2.72 -2.17,0 -4.63,0.96 -7.35,2.86 -2.73,1.92 -5.22,4.44 -7.5,7.58 -2.39,3.27 -4.06,6.54 -5.04,9.79 -0.21,0.71 -0.49,1.27 -0.84,1.68 -0.35,0.41 -0.94,0.85 -1.76,1.32 -1.81,1.06 -3.18,1.59 -4.12,1.59 -1.04,0 -1.57,-0.63 -1.57,-1.89 0,-0.65 0.18,-1.42 0.53,-2.33 0.36,-0.9 1.1,-2.53 2.27,-4.87l2.31 -4.64c1.22,-2.45 2.06,-4.27 2.51,-5.46 0.46,-1.18 0.69,-2.14 0.69,-2.88 0,-1.79 -1.08,-2.68 -3.23,-2.68 -1.91,0 -4.17,0.81 -6.75,2.43 -2.59,1.63 -4.9,3.69 -6.92,6.18 -2.91,3.56 -4.98,7.29 -6.24,11.2 -0.29,0.97 -0.54,1.6 -0.77,1.89 -0.21,0.31 -0.66,0.68 -1.33,1.13 -2.1,1.32 -3.74,1.98 -4.95,1.98 -0.95,0 -1.43,-0.6 -1.43,-1.81 0,-1.8 2.56,-7.33 7.67,-16.59l2.68 -4.89c0.53,-0.92 0.85,-1.64 0.99,-2.14 0.19,-0.78 0.45,-1.32 0.77,-1.61 0.33,-0.29 1.06,-0.64 2.2,-1.07 1.65,-0.6 2.98,-0.9 3.98,-0.9 1.02,0 1.53,0.44 1.53,1.33 0,0.44 -0.26,1.13 -0.81,2.07l-1.28 2.16c-0.05,0.11 -0.07,0.2 -0.07,0.28 0,0.18 0.1,0.27 0.3,0.27 0.12,0 0.27,-0.07 0.45,-0.22 2.14,-1.64 4.61,-3.04 7.45,-4.2 2.83,-1.17 5.2,-1.75 7.11,-1.75 1.72,0 3.2,0.52 4.42,1.57 1.22,1.04 1.84,2.31 1.84,3.78 0,0.21 -0.01,0.42 -0.02,0.59 -0.04,0.31 -0.05,0.53 -0.05,0.67 0,0.28 0.13,0.42 0.37,0.42 0.17,0 0.68,-0.29 1.54,-0.9 5.87,-4.05 11.02,-6.07 15.41,-6.07 1.89,0 3.35,0.48 4.41,1.46 1.06,0.98 1.58,2.34 1.58,4.08 0,1.07 -0.15,2.01 -0.44,2.83 -0.29,0.81 -1.15,2.58 -2.56,5.29zm21.84 12.18c-4.23,2.52 -8.46,3.79 -12.71,3.79 -2.22,0 -3.95,-0.36 -5.2,-1.09 -0.75,-0.42 -1.36,-1.01 -1.82,-1.77 -0.47,-0.75 -0.7,-1.52 -0.7,-2.31 0,-2.47 1.24,-4.88 3.73,-7.21 2.49,-2.32 5.65,-4.03 9.46,-5.12 3.08,-0.89 6.18,-1.33 9.27,-1.33 0.27,0 0.54,0.01 0.78,0.03 1.5,0.06 2.3,0.1 2.39,0.1 0.95,0 1.78,-0.35 2.45,-1.05 0.69,-0.71 1.03,-1.54 1.03,-2.51 0,-1.1 -0.49,-1.95 -1.47,-2.57 -0.98,-0.6 -2.35,-0.91 -4.13,-0.91 -3.38,0 -7.06,0.89 -11.04,2.69 -0.66,0.3 -1.2,0.46 -1.6,0.46 -0.69,0 -1.03,-0.29 -1.03,-0.88 0,-0.86 0.86,-1.82 2.6,-2.88 3.51,-2.19 8.16,-3.28 13.93,-3.28 3.05,0 5.37,0.46 6.96,1.39 0.79,0.44 1.44,1.06 1.94,1.86 0.5,0.8 0.75,1.61 0.75,2.44 0,1.85 -1.03,4.67 -3.07,8.47l-4.96 9.15c-0.47,0.96 -0.71,2.01 -0.71,3.13 0,0.42 -0.67,1.06 -2.04,1.91 -1.36,0.86 -2.38,1.28 -3.06,1.28 -0.49,0 -0.95,-0.25 -1.34,-0.75 -0.4,-0.5 -0.6,-1.07 -0.6,-1.72 0,-0.34 0.06,-0.78 0.19,-1.32zm-0.62 -11.58c-1.48,0 -3,0.22 -4.58,0.68 -1.57,0.45 -2.97,1.08 -4.17,1.86 -2.67,1.7 -4.01,3.57 -4.01,5.61 0,0.97 0.39,1.75 1.19,2.33 0.8,0.59 1.86,0.88 3.19,0.88 1.44,0 2.98,-0.27 4.64,-0.8 1.65,-0.52 3.16,-1.22 4.52,-2.11 1.2,-0.77 2.18,-1.65 2.92,-2.64 0.76,-0.99 1.13,-1.88 1.13,-2.69 0,-0.97 -0.43,-1.73 -1.28,-2.28 -0.85,-0.54 -2.04,-0.82 -3.55,-0.84zm25.33 9.63l14.34 -0.49c1.07,-0.05 1.68,-0.07 1.84,-0.07 1.73,0 2.59,0.26 2.59,0.79 0,0.31 -0.39,0.77 -1.19,1.35 -0.48,0.38 -0.89,0.71 -1.23,0.99 -0.96,0.74 -1.66,1.21 -2.1,1.39 -0.44,0.18 -1.26,0.3 -2.44,0.36l-16.46 0.84c-2.56,0.14 -4.21,0.21 -4.91,0.21 -2.1,0 -3.15,-0.51 -3.15,-1.53 0,-0.37 0.25,-0.77 0.74,-1.19 0.49,-0.42 2.21,-1.72 5.15,-3.89l4.8 -3.56 4.74 -3.54 3.98 -2.94 7.86 -5.78c0.43,-0.33 0.65,-0.56 0.65,-0.7 -0.02,-0.19 -0.19,-0.29 -0.54,-0.27l-0.43 0.03 -7.97 0.44 -2.72 0.22 -3.21 0.21c-1.34,0.1 -2.1,0.15 -2.25,0.15 -0.83,0 -1.23,-0.28 -1.23,-0.84 0,-0.35 0.42,-0.84 1.25,-1.45 0.26,-0.19 0.76,-0.57 1.5,-1.15 0.96,-0.79 1.6,-1.24 1.91,-1.35 0.32,-0.11 1.18,-0.21 2.56,-0.29l14.85 -0.66c0.9,-0.04 1.52,-0.06 1.83,-0.06 1.42,0 2.39,0.16 2.94,0.48 0.38,0.24 0.74,0.62 1.08,1.11 0.32,0.51 0.49,0.94 0.49,1.3 0,0.33 -0.25,0.65 -0.75,0.97l-8.11 5.46c-4.06,2.78 -8.64,6.03 -13.75,9.78 -0.64,0.5 -1.28,1 -1.94,1.5 -1.18,0.83 -1.77,1.4 -1.77,1.7 0,0.31 0.31,0.48 0.96,0.48l0.09 0zm40.39 -20.13l-2.86 4.88c-4.73,8.17 -7.34,13.6 -7.84,16.3 -0.18,0.68 -0.81,1.35 -1.88,2 -2.35,1.42 -3.94,2.13 -4.79,2.13 -0.48,0 -0.86,-0.15 -1.16,-0.46 -0.29,-0.32 -0.44,-0.72 -0.44,-1.22 0,-2.13 1.85,-6.49 5.56,-13.1l4.51 -8.01c0.53,-0.98 1.07,-1.98 1.59,-3.01 0.45,-0.81 0.83,-1.39 1.17,-1.7 0.33,-0.31 0.87,-0.58 1.6,-0.79 2.17,-0.65 3.57,-0.97 4.24,-0.97 0.95,0 1.43,0.45 1.43,1.36 0,0.42 -0.37,1.29 -1.13,2.59zm5 -18.46c0.46,0 0.84,0.13 1.13,0.36 0.29,0.24 0.42,0.54 0.37,0.88 -0.11,0.92 -0.5,1.94 -1.17,3.08 -0.67,1.13 -1.38,1.97 -2.12,2.51 -0.71,0.5 -1.72,1 -3.06,1.53 -1.34,0.52 -2.3,0.78 -2.9,0.78 -0.72,0 -1.08,-0.36 -1.08,-1.08 0,-0.66 0.39,-1.64 1.14,-2.96 0.76,-1.31 1.53,-2.3 2.29,-2.96 0.57,-0.48 1.45,-0.96 2.62,-1.43 1.18,-0.47 2.11,-0.71 2.78,-0.71zm29.76 27.34l-2.92 5.66c-1.29,2.64 -2.12,4.75 -2.49,6.31 -0.13,0.65 -0.32,1.12 -0.57,1.43 -0.25,0.32 -0.72,0.67 -1.39,1.08 -2.24,1.35 -3.79,2.02 -4.67,2.02 -1.07,0 -1.6,-0.63 -1.6,-1.88 0,-0.59 0.26,-1.64 0.8,-3.14 0.52,-1.51 1.13,-2.92 1.81,-4.24l2.41 -4.68c1.51,-2.88 2.48,-4.79 2.89,-5.75 0.4,-0.94 0.6,-1.79 0.6,-2.51 0,-0.8 -0.31,-1.46 -0.95,-1.97 -0.64,-0.52 -1.47,-0.77 -2.49,-0.77 -1.34,0 -2.93,0.43 -4.77,1.29 -1.84,0.87 -3.57,1.98 -5.18,3.35 -2.09,1.76 -4.09,4.09 -6.01,6.99 -1.92,2.9 -3.27,5.62 -4.05,8.15 -0.29,0.97 -0.55,1.58 -0.77,1.84 -0.21,0.26 -0.72,0.61 -1.51,1.05 -2.53,1.39 -4.12,2.08 -4.81,2.08 -0.4,0 -0.74,-0.15 -1.02,-0.46 -0.27,-0.32 -0.41,-0.71 -0.41,-1.2 0,-2 2.56,-7.57 7.69,-16.71l2.7 -4.84c0.52,-0.87 0.88,-1.56 1.09,-2.09 0.36,-0.95 0.73,-1.58 1.09,-1.9 0.35,-0.32 1.02,-0.63 2.03,-0.91 2.03,-0.61 3.33,-0.9 3.9,-0.9 1.07,0 1.6,0.43 1.6,1.29 0,0.55 -0.34,1.38 -1.03,2.49l-1.16 1.84c-0.07,0.11 -0.11,0.2 -0.11,0.28 0,0.18 0.11,0.27 0.3,0.27 0.12,0 0.4,-0.15 0.85,-0.45 2.5,-1.69 5.05,-3.04 7.66,-4.07 2.62,-1.02 4.85,-1.53 6.71,-1.53 1.85,0 3.33,0.49 4.42,1.47 1.08,0.99 1.63,2.31 1.63,3.98 0,1.78 -0.76,4.16 -2.27,7.13zm20.73 -8.88l-2.86 4.88c-4.72,8.17 -7.34,13.6 -7.84,16.3 -0.18,0.68 -0.8,1.35 -1.87,2 -2.35,1.42 -3.95,2.13 -4.8,2.13 -0.47,0 -0.86,-0.15 -1.16,-0.46 -0.29,-0.32 -0.44,-0.72 -0.44,-1.22 0,-2.13 1.85,-6.49 5.56,-13.1l4.51 -8.01c0.54,-0.98 1.07,-1.98 1.6,-3.01 0.44,-0.81 0.82,-1.39 1.16,-1.7 0.34,-0.31 0.87,-0.58 1.6,-0.79 2.17,-0.65 3.58,-0.97 4.24,-0.97 0.95,0 1.43,0.45 1.43,1.36 0,0.42 -0.37,1.29 -1.13,2.59zm5 -18.46c0.46,0 0.84,0.13 1.13,0.36 0.29,0.24 0.42,0.54 0.38,0.88 -0.12,0.92 -0.51,1.94 -1.18,3.08 -0.66,1.13 -1.37,1.97 -2.12,2.51 -0.71,0.5 -1.72,1 -3.06,1.53 -1.33,0.52 -2.3,0.78 -2.89,0.78 -0.72,0 -1.08,-0.36 -1.08,-1.08 0,-0.66 0.38,-1.64 1.14,-2.96 0.75,-1.31 1.52,-2.3 2.29,-2.96 0.57,-0.48 1.44,-0.96 2.61,-1.43 1.18,-0.47 2.11,-0.71 2.78,-0.71z"/>
     </g>
     <path class="fil0" d="M321.33 202.26l3.01 0.41c-0.95,2.63 -2.33,4.62 -4.15,5.96 -1.82,1.35 -3.85,2.02 -6.12,2.02 -2.75,0 -4.94,-0.84 -6.56,-2.53 -1.61,-1.69 -2.42,-4.1 -2.42,-7.24 0,-4.09 1.23,-7.48 3.68,-10.16 2.19,-2.39 4.91,-3.58 8.15,-3.58 2.41,0 4.35,0.65 5.84,1.94 1.49,1.29 2.36,3.03 2.59,5.21l-2.81 0.25c-0.31,-1.64 -0.94,-2.86 -1.87,-3.67 -0.94,-0.81 -2.14,-1.22 -3.61,-1.22 -2.78,0 -5.03,1.23 -6.74,3.7 -1.48,2.14 -2.22,4.67 -2.22,7.59 0,2.34 0.57,4.12 1.72,5.35 1.14,1.23 2.64,1.85 4.48,1.85 1.57,0 2.99,-0.51 4.26,-1.54 1.27,-1.02 2.19,-2.47 2.77,-4.34zm4.62 8.01l4.73 -22.75 2.78 0 -4.73 22.75 -2.78 0zm8.18 0l3.42 -16.49 2.78 0 -3.42 16.49 -2.78 0zm2.66 -18.49l2.92 -4.26 3.51 0 -4.12 4.26 -2.31 0zm5.16 18.49l3.44 -16.49 2.55 0 -0.59 2.88c1.12,-1.12 2.16,-1.94 3.13,-2.46 0.97,-0.51 1.95,-0.77 2.97,-0.77 1.34,0 2.4,0.37 3.16,1.09 0.77,0.72 1.15,1.69 1.15,2.91 0,0.61 -0.14,1.57 -0.42,2.88l-2.22 9.96 -2.79 0 2.31 -10.43c0.23,-1.02 0.34,-1.76 0.34,-2.25 0,-0.54 -0.19,-0.99 -0.57,-1.33 -0.39,-0.34 -0.94,-0.51 -1.67,-0.51 -1.46,0 -2.76,0.51 -3.9,1.54 -1.14,1.04 -1.98,2.81 -2.52,5.31l-1.59 7.67 -2.78 0zm21.66 -19.57l0.67 -3.18 2.78 0 -0.67 3.18 -2.78 0zm-4.08 19.57l3.44 -16.49 2.78 0 -3.44 16.49 -2.78 0zm18.4 -6.01l2.82 0.29c-0.71,2.05 -1.7,3.58 -3,4.57 -1.29,1 -2.77,1.5 -4.42,1.5 -1.79,0 -3.23,-0.58 -4.35,-1.74 -1.11,-1.15 -1.66,-2.77 -1.66,-4.84 0,-1.8 0.36,-3.56 1.07,-5.3 0.71,-1.73 1.73,-3.05 3.05,-3.96 1.33,-0.9 2.85,-1.35 4.55,-1.35 1.76,0 3.16,0.5 4.19,1.5 1.03,1 1.55,2.32 1.55,3.96l-2.76 0.19c-0.01,-1.04 -0.31,-1.86 -0.9,-2.45 -0.6,-0.58 -1.38,-0.88 -2.35,-0.88 -1.13,0 -2.1,0.35 -2.93,1.07 -0.83,0.71 -1.47,1.79 -1.94,3.24 -0.47,1.45 -0.71,2.85 -0.71,4.19 0,1.4 0.31,2.45 0.93,3.15 0.62,0.71 1.38,1.06 2.29,1.06 0.91,0 1.78,-0.35 2.61,-1.04 0.83,-0.69 1.48,-1.74 1.96,-3.16zm15.58 3.96c-0.98,0.84 -1.91,1.44 -2.8,1.83 -0.9,0.38 -1.86,0.57 -2.88,0.57 -1.52,0 -2.74,-0.45 -3.66,-1.34 -0.93,-0.89 -1.4,-2.04 -1.4,-3.43 0,-0.92 0.21,-1.73 0.63,-2.44 0.42,-0.7 0.97,-1.27 1.66,-1.7 0.69,-0.43 1.53,-0.73 2.54,-0.92 0.63,-0.13 1.83,-0.22 3.59,-0.3 1.76,-0.07 3.03,-0.26 3.79,-0.55 0.22,-0.77 0.33,-1.41 0.33,-1.91 0,-0.66 -0.24,-1.16 -0.71,-1.54 -0.66,-0.51 -1.61,-0.77 -2.86,-0.77 -1.18,0 -2.14,0.26 -2.9,0.78 -0.75,0.53 -1.29,1.27 -1.63,2.23l-2.82 -0.25c0.57,-1.63 1.49,-2.88 2.74,-3.75 1.25,-0.87 2.82,-1.3 4.73,-1.3 2.03,0 3.63,0.49 4.82,1.46 0.9,0.72 1.35,1.66 1.35,2.82 0,0.88 -0.12,1.89 -0.38,3.05l-0.9 4.1c-0.28,1.3 -0.43,2.36 -0.43,3.17 0,0.52 0.11,1.26 0.34,2.24l-2.83 0c-0.15,-0.54 -0.26,-1.22 -0.32,-2.05zm1.05 -6.31c-0.4,0.15 -0.82,0.28 -1.27,0.36 -0.45,0.08 -1.21,0.17 -2.26,0.26 -1.63,0.14 -2.77,0.33 -3.44,0.55 -0.67,0.22 -1.18,0.58 -1.52,1.07 -0.34,0.48 -0.51,1.02 -0.51,1.61 0,0.78 0.27,1.43 0.81,1.93 0.54,0.51 1.31,0.77 2.31,0.77 0.93,0 1.82,-0.25 2.68,-0.74 0.85,-0.49 1.53,-1.18 2.03,-2.05 0.5,-0.88 0.89,-2.13 1.17,-3.76zm14.83 8.36l4.73 -22.75 3.78 0 2.1 14.73c0.28,1.96 0.45,3.82 0.53,5.57 0.63,-1.49 1.68,-3.56 3.16,-6.19l7.93 -14.11 3.8 0 -4.8 22.75 -2.98 0 2.4 -11.06c0.55,-2.56 1.33,-5.43 2.35,-8.61 -0.68,1.47 -1.5,3.06 -2.43,4.78l-8.42 14.89 -2.92 0 -2.08 -14.61c-0.2,-1.34 -0.33,-2.88 -0.41,-4.65 -0.27,2.03 -0.53,3.63 -0.78,4.79l-3.01 14.47 -2.95 0zm37.92 -5.59l2.72 0.25c-0.39,1.36 -1.3,2.64 -2.7,3.86 -1.41,1.22 -3.1,1.83 -5.05,1.83 -1.22,0 -2.34,-0.28 -3.35,-0.85 -1.02,-0.56 -1.79,-1.38 -2.33,-2.45 -0.53,-1.08 -0.79,-2.3 -0.79,-3.67 0,-1.8 0.41,-3.54 1.24,-5.23 0.84,-1.69 1.91,-2.94 3.23,-3.76 1.32,-0.82 2.76,-1.23 4.3,-1.23 1.96,0 3.53,0.61 4.7,1.82 1.17,1.22 1.75,2.88 1.75,4.98 0,0.81 -0.07,1.63 -0.21,2.48l-12.13 0c-0.05,0.32 -0.07,0.61 -0.07,0.86 0,1.55 0.36,2.73 1.07,3.54 0.71,0.81 1.58,1.22 2.6,1.22 0.96,0 1.91,-0.31 2.85,-0.94 0.92,-0.63 1.65,-1.53 2.17,-2.71zm-8.17 -4.14l9.25 0c0.01,-0.28 0.02,-0.49 0.02,-0.61 0,-1.4 -0.36,-2.48 -1.06,-3.22 -0.7,-0.75 -1.61,-1.12 -2.72,-1.12 -1.2,0 -2.29,0.41 -3.28,1.23 -0.99,0.83 -1.72,2.07 -2.21,3.72zm3.85 -8.76l2.92 -4.26 3.51 0 -4.12 4.26 -2.31 0zm20.9 16.1c-1.6,1.83 -3.27,2.74 -5.01,2.74 -1.55,0 -2.85,-0.58 -3.88,-1.73 -1.04,-1.15 -1.55,-2.82 -1.55,-5.01 0,-2 0.41,-3.83 1.23,-5.49 0.82,-1.66 1.84,-2.9 3.07,-3.72 1.23,-0.83 2.46,-1.24 3.7,-1.24 2.03,0 3.57,0.98 4.61,2.95l1.86 -8.86 2.78 0 -4.71 22.75 -2.6 0 0.5 -2.39zm-7.66 -4.53c0,1.15 0.12,2.05 0.35,2.71 0.22,0.66 0.61,1.21 1.16,1.64 0.54,0.44 1.19,0.66 1.96,0.66 1.27,0 2.42,-0.66 3.45,-1.98 1.38,-1.75 2.08,-3.91 2.08,-6.48 0,-1.3 -0.34,-2.32 -1.02,-3.06 -0.68,-0.73 -1.54,-1.09 -2.57,-1.09 -0.67,0 -1.29,0.15 -1.84,0.45 -0.55,0.3 -1.1,0.8 -1.64,1.52 -0.54,0.71 -1,1.62 -1.37,2.73 -0.37,1.1 -0.56,2.07 -0.56,2.9zm18.25 -12.65l0.66 -3.18 2.78 0 -0.66 3.18 -2.78 0zm-4.09 19.57l3.44 -16.49 2.78 0 -3.44 16.49 -2.78 0zm18.4 -6.01l2.82 0.29c-0.7,2.05 -1.7,3.58 -3,4.57 -1.29,1 -2.76,1.5 -4.41,1.5 -1.79,0 -3.24,-0.58 -4.35,-1.74 -1.11,-1.15 -1.66,-2.77 -1.66,-4.84 0,-1.8 0.35,-3.56 1.06,-5.3 0.71,-1.73 1.73,-3.05 3.06,-3.96 1.33,-0.9 2.84,-1.35 4.54,-1.35 1.76,0 3.16,0.5 4.2,1.5 1.02,1 1.54,2.32 1.54,3.96l-2.75 0.19c-0.01,-1.04 -0.31,-1.86 -0.91,-2.45 -0.59,-0.58 -1.38,-0.88 -2.35,-0.88 -1.12,0 -2.1,0.35 -2.93,1.07 -0.82,0.71 -1.47,1.79 -1.94,3.24 -0.47,1.45 -0.71,2.85 -0.71,4.19 0,1.4 0.31,2.45 0.93,3.15 0.62,0.71 1.38,1.06 2.29,1.06 0.92,0 1.78,-0.35 2.61,-1.04 0.83,-0.69 1.49,-1.74 1.96,-3.16zm15.58 3.96c-0.97,0.84 -1.9,1.44 -2.8,1.83 -0.89,0.38 -1.85,0.57 -2.88,0.57 -1.51,0 -2.73,-0.45 -3.66,-1.34 -0.93,-0.89 -1.39,-2.04 -1.39,-3.43 0,-0.92 0.21,-1.73 0.62,-2.44 0.42,-0.7 0.98,-1.27 1.66,-1.7 0.69,-0.43 1.54,-0.73 2.54,-0.92 0.63,-0.13 1.83,-0.22 3.59,-0.3 1.77,-0.07 3.03,-0.26 3.8,-0.55 0.21,-0.77 0.32,-1.41 0.32,-1.91 0,-0.66 -0.23,-1.16 -0.71,-1.54 -0.65,-0.51 -1.6,-0.77 -2.86,-0.77 -1.17,0 -2.14,0.26 -2.89,0.78 -0.75,0.53 -1.3,1.27 -1.64,2.23l-2.82 -0.25c0.58,-1.63 1.49,-2.88 2.74,-3.75 1.25,-0.87 2.83,-1.3 4.73,-1.3 2.03,0 3.63,0.49 4.82,1.46 0.9,0.72 1.36,1.66 1.36,2.82 0,0.88 -0.13,1.89 -0.38,3.05l-0.9 4.1c-0.29,1.3 -0.43,2.36 -0.43,3.17 0,0.52 0.11,1.26 0.34,2.24l-2.83 0c-0.16,-0.54 -0.27,-1.22 -0.33,-2.05zm1.05 -6.31c-0.4,0.15 -0.82,0.28 -1.27,0.36 -0.45,0.08 -1.2,0.17 -2.25,0.26 -1.64,0.14 -2.78,0.33 -3.45,0.55 -0.67,0.22 -1.18,0.58 -1.51,1.07 -0.35,0.48 -0.52,1.02 -0.52,1.61 0,0.78 0.27,1.43 0.82,1.93 0.53,0.51 1.3,0.77 2.31,0.77 0.93,0 1.82,-0.25 2.67,-0.74 0.86,-0.49 1.53,-1.18 2.03,-2.05 0.5,-0.88 0.89,-2.13 1.17,-3.76zm26.38 2.77l2.72 0.25c-0.39,1.36 -1.3,2.64 -2.7,3.86 -1.41,1.22 -3.1,1.83 -5.05,1.83 -1.22,0 -2.34,-0.28 -3.35,-0.85 -1.02,-0.56 -1.79,-1.38 -2.33,-2.45 -0.53,-1.08 -0.79,-2.3 -0.79,-3.67 0,-1.8 0.41,-3.54 1.24,-5.23 0.84,-1.69 1.91,-2.94 3.23,-3.76 1.33,-0.82 2.76,-1.23 4.3,-1.23 1.96,0 3.53,0.61 4.7,1.82 1.17,1.22 1.76,2.88 1.76,4.98 0,0.81 -0.08,1.63 -0.22,2.48l-12.13 0c-0.04,0.32 -0.07,0.61 -0.07,0.86 0,1.55 0.36,2.73 1.07,3.54 0.71,0.81 1.58,1.22 2.6,1.22 0.96,0 1.91,-0.31 2.85,-0.94 0.92,-0.63 1.65,-1.53 2.17,-2.71zm-8.17 -4.14l9.25 0c0.01,-0.28 0.02,-0.49 0.02,-0.61 0,-1.4 -0.36,-2.48 -1.06,-3.22 -0.7,-0.75 -1.61,-1.12 -2.72,-1.12 -1.2,0 -2.29,0.41 -3.28,1.23 -0.99,0.83 -1.72,2.07 -2.21,3.72zm40.55 1.72l3.01 0.41c-0.95,2.63 -2.33,4.62 -4.16,5.96 -1.81,1.35 -3.85,2.02 -6.11,2.02 -2.76,0 -4.95,-0.84 -6.56,-2.53 -1.61,-1.69 -2.42,-4.1 -2.42,-7.24 0,-4.09 1.23,-7.48 3.68,-10.16 2.19,-2.39 4.9,-3.58 8.15,-3.58 2.4,0 4.35,0.65 5.84,1.94 1.49,1.29 2.35,3.03 2.59,5.21l-2.82 0.25c-0.31,-1.64 -0.93,-2.86 -1.86,-3.67 -0.94,-0.81 -2.14,-1.22 -3.61,-1.22 -2.78,0 -5.03,1.23 -6.74,3.7 -1.48,2.14 -2.23,4.67 -2.23,7.59 0,2.34 0.58,4.12 1.73,5.35 1.14,1.23 2.63,1.85 4.48,1.85 1.56,0 2.99,-0.51 4.25,-1.54 1.28,-1.02 2.2,-2.47 2.78,-4.34zm15.87 5.96c-0.97,0.84 -1.91,1.44 -2.8,1.83 -0.9,0.38 -1.86,0.57 -2.88,0.57 -1.51,0 -2.73,-0.45 -3.66,-1.34 -0.93,-0.89 -1.4,-2.04 -1.4,-3.43 0,-0.92 0.22,-1.73 0.63,-2.44 0.42,-0.7 0.97,-1.27 1.66,-1.7 0.69,-0.43 1.54,-0.73 2.54,-0.92 0.63,-0.13 1.83,-0.22 3.59,-0.3 1.76,-0.07 3.03,-0.26 3.79,-0.55 0.22,-0.77 0.33,-1.41 0.33,-1.91 0,-0.66 -0.24,-1.16 -0.71,-1.54 -0.65,-0.51 -1.6,-0.77 -2.86,-0.77 -1.18,0 -2.14,0.26 -2.9,0.78 -0.75,0.53 -1.29,1.27 -1.63,2.23l-2.82 -0.25c0.57,-1.63 1.49,-2.88 2.74,-3.75 1.25,-0.87 2.83,-1.3 4.73,-1.3 2.03,0 3.63,0.49 4.82,1.46 0.9,0.72 1.35,1.66 1.35,2.82 0,0.88 -0.12,1.89 -0.37,3.05l-0.91 4.1c-0.28,1.3 -0.42,2.36 -0.42,3.17 0,0.52 0.11,1.26 0.33,2.24l-2.83 0c-0.15,-0.54 -0.26,-1.22 -0.32,-2.05zm1.05 -6.31c-0.4,0.15 -0.82,0.28 -1.27,0.36 -0.45,0.08 -1.21,0.17 -2.26,0.26 -1.63,0.14 -2.77,0.33 -3.44,0.55 -0.67,0.22 -1.18,0.58 -1.52,1.07 -0.34,0.48 -0.51,1.02 -0.51,1.61 0,0.78 0.27,1.43 0.81,1.93 0.54,0.51 1.31,0.77 2.31,0.77 0.93,0 1.83,-0.25 2.68,-0.74 0.85,-0.49 1.53,-1.18 2.03,-2.05 0.5,-0.88 0.89,-2.13 1.17,-3.76zm5.51 8.36l3.42 -16.49 2.49 0 -0.7 3.37c0.85,-1.26 1.68,-2.2 2.49,-2.81 0.81,-0.61 1.64,-0.91 2.48,-0.91 0.56,0 1.24,0.2 2.05,0.6l-1.13 2.61c-0.49,-0.36 -1.02,-0.54 -1.6,-0.54 -0.98,0 -1.99,0.55 -3.02,1.64 -1.04,1.1 -1.86,3.07 -2.45,5.92l-1.37 6.61 -2.66 0zm21.58 -2.39c-1.6,1.83 -3.27,2.74 -5,2.74 -1.56,0 -2.85,-0.58 -3.89,-1.73 -1.03,-1.15 -1.55,-2.82 -1.55,-5.01 0,-2 0.41,-3.83 1.23,-5.49 0.82,-1.66 1.84,-2.9 3.07,-3.72 1.23,-0.83 2.47,-1.24 3.7,-1.24 2.04,0 3.58,0.98 4.62,2.95l1.85 -8.86 2.79 0 -4.72 22.75 -2.6 0 0.5 -2.39zm-7.65 -4.53c0,1.15 0.12,2.05 0.34,2.71 0.23,0.66 0.61,1.21 1.16,1.64 0.55,0.44 1.2,0.66 1.97,0.66 1.27,0 2.42,-0.66 3.45,-1.98 1.38,-1.75 2.07,-3.91 2.07,-6.48 0,-1.3 -0.34,-2.32 -1.02,-3.06 -0.68,-0.73 -1.54,-1.09 -2.57,-1.09 -0.67,0 -1.28,0.15 -1.83,0.45 -0.55,0.3 -1.1,0.8 -1.65,1.52 -0.53,0.71 -0.99,1.62 -1.36,2.73 -0.38,1.1 -0.56,2.07 -0.56,2.9zm18.24 -12.65l0.67 -3.18 2.78 0 -0.67 3.18 -2.78 0zm-4.08 19.57l3.44 -16.49 2.78 0 -3.44 16.49 -2.78 0zm7.57 -6.27c0,-3.21 0.94,-5.86 2.83,-7.97 1.55,-1.73 3.59,-2.6 6.12,-2.6 1.97,0 3.57,0.62 4.78,1.86 1.21,1.24 1.81,2.91 1.81,5.01 0,1.89 -0.37,3.65 -1.14,5.28 -0.76,1.62 -1.85,2.87 -3.25,3.73 -1.41,0.87 -2.89,1.31 -4.44,1.31 -1.28,0 -2.44,-0.28 -3.49,-0.82 -1.05,-0.55 -1.84,-1.33 -2.39,-2.33 -0.56,-1 -0.83,-2.15 -0.83,-3.47zm2.79 -0.27c0,1.55 0.37,2.73 1.11,3.53 0.75,0.79 1.7,1.2 2.85,1.2 0.6,0 1.2,-0.13 1.78,-0.37 0.59,-0.24 1.14,-0.61 1.65,-1.11 0.51,-0.49 0.94,-1.06 1.3,-1.7 0.35,-0.63 0.65,-1.31 0.86,-2.05 0.32,-1.02 0.48,-2 0.48,-2.94 0,-1.49 -0.37,-2.65 -1.12,-3.47 -0.76,-0.82 -1.7,-1.23 -2.84,-1.23 -0.88,0 -1.68,0.21 -2.41,0.63 -0.73,0.42 -1.38,1.03 -1.97,1.84 -0.58,0.8 -1.01,1.74 -1.28,2.81 -0.28,1.07 -0.41,2.02 -0.41,2.86zm14.14 6.54l4.73 -22.75 2.78 0 -4.73 22.75 -2.78 0zm7.71 -6.27c0,-3.21 0.95,-5.86 2.83,-7.97 1.56,-1.73 3.59,-2.6 6.12,-2.6 1.98,0 3.57,0.62 4.78,1.86 1.21,1.24 1.82,2.91 1.82,5.01 0,1.89 -0.38,3.65 -1.15,5.28 -0.76,1.62 -1.84,2.87 -3.25,3.73 -1.41,0.87 -2.88,1.31 -4.44,1.31 -1.28,0 -2.44,-0.28 -3.48,-0.82 -1.05,-0.55 -1.85,-1.33 -2.4,-2.33 -0.55,-1 -0.83,-2.15 -0.83,-3.47zm2.79 -0.27c0,1.55 0.37,2.73 1.12,3.53 0.74,0.79 1.69,1.2 2.84,1.2 0.6,0 1.2,-0.13 1.78,-0.37 0.6,-0.24 1.15,-0.61 1.65,-1.11 0.51,-0.49 0.95,-1.06 1.3,-1.7 0.36,-0.63 0.65,-1.31 0.87,-2.05 0.32,-1.02 0.48,-2 0.48,-2.94 0,-1.49 -0.38,-2.65 -1.13,-3.47 -0.75,-0.82 -1.7,-1.23 -2.84,-1.23 -0.88,0 -1.68,0.21 -2.4,0.63 -0.73,0.42 -1.39,1.03 -1.97,1.84 -0.59,0.8 -1.02,1.74 -1.29,2.81 -0.27,1.07 -0.41,2.02 -0.41,2.86zm14.16 8.03l2.85 0.25c-0.02,0.65 0.06,1.13 0.23,1.46 0.17,0.32 0.45,0.57 0.83,0.74 0.5,0.23 1.16,0.35 1.96,0.35 1.69,0 2.9,-0.44 3.64,-1.32 0.49,-0.6 0.94,-1.88 1.35,-3.85l0.28 -1.34c-1.45,1.48 -3,2.22 -4.64,2.22 -1.66,0 -3.05,-0.62 -4.16,-1.84 -1.12,-1.22 -1.68,-2.96 -1.68,-5.2 0,-1.85 0.44,-3.55 1.32,-5.1 0.88,-1.56 1.93,-2.73 3.14,-3.51 1.21,-0.79 2.47,-1.19 3.75,-1.19 2.15,0 3.81,1 4.97,3.02l0.58 -2.67 2.59 0 -3.34 15.92c-0.36,1.75 -0.83,3.11 -1.42,4.09 -0.59,0.98 -1.4,1.74 -2.45,2.28 -1.04,0.54 -2.25,0.81 -3.62,0.81 -1.32,0 -2.46,-0.17 -3.41,-0.52 -0.95,-0.34 -1.67,-0.84 -2.13,-1.5 -0.47,-0.66 -0.71,-1.41 -0.71,-2.26 0,-0.26 0.02,-0.54 0.07,-0.84zm3.51 -8.78c0,1.13 0.11,1.98 0.33,2.55 0.3,0.79 0.75,1.4 1.32,1.82 0.57,0.42 1.21,0.63 1.91,0.63 0.93,0 1.84,-0.32 2.75,-0.97 0.91,-0.65 1.64,-1.64 2.21,-3 0.56,-1.36 0.84,-2.65 0.84,-3.88 0,-1.36 -0.37,-2.44 -1.12,-3.24 -0.75,-0.8 -1.68,-1.2 -2.78,-1.2 -0.68,0 -1.35,0.18 -1.99,0.55 -0.64,0.36 -1.24,0.92 -1.79,1.67 -0.55,0.75 -0.97,1.65 -1.25,2.69 -0.29,1.05 -0.43,1.84 -0.43,2.38zm18.31 -12.28l0.66 -3.18 2.78 0 -0.66 3.18 -2.78 0zm-4.09 19.57l3.44 -16.49 2.78 0 -3.44 16.49 -2.78 0zm7.35 -5.66l2.82 -0.16c0,0.81 0.12,1.5 0.37,2.07 0.24,0.56 0.7,1.03 1.36,1.39 0.66,0.37 1.43,0.55 2.31,0.55 1.23,0 2.15,-0.25 2.76,-0.75 0.62,-0.49 0.93,-1.08 0.93,-1.75 0,-0.48 -0.19,-0.95 -0.55,-1.38 -0.38,-0.43 -1.31,-0.97 -2.77,-1.6 -1.46,-0.63 -2.4,-1.08 -2.81,-1.34 -0.7,-0.42 -1.22,-0.92 -1.58,-1.5 -0.35,-0.57 -0.53,-1.22 -0.53,-1.97 0,-1.3 0.52,-2.42 1.55,-3.35 1.03,-0.93 2.46,-1.39 4.31,-1.39 2.06,0 3.62,0.47 4.69,1.43 1.08,0.96 1.63,2.22 1.68,3.78l-2.73 0.19c-0.04,-0.99 -0.39,-1.78 -1.04,-2.37 -0.66,-0.58 -1.58,-0.87 -2.78,-0.87 -0.97,0 -1.72,0.22 -2.25,0.67 -0.53,0.45 -0.8,0.93 -0.8,1.45 0,0.51 0.24,0.97 0.69,1.36 0.31,0.27 1.1,0.69 2.38,1.24 2.13,0.93 3.47,1.66 4.02,2.2 0.89,0.85 1.33,1.9 1.33,3.12 0,0.82 -0.24,1.62 -0.74,2.4 -0.5,0.79 -1.26,1.41 -2.28,1.88 -1.03,0.47 -2.23,0.71 -3.62,0.71 -1.89,0 -3.5,-0.47 -4.82,-1.42 -1.33,-0.93 -1.96,-2.47 -1.9,-4.59zm22.09 3.38l-0.46 2.3c-0.67,0.17 -1.32,0.26 -1.95,0.26 -1.11,0 -1.99,-0.27 -2.65,-0.82 -0.49,-0.42 -0.74,-0.98 -0.74,-1.7 0,-0.36 0.13,-1.19 0.4,-2.5l1.99 -9.59 -2.21 0 0.44 -2.16 2.22 0 0.85 -4.04 3.2 -1.93 -1.27 5.97 2.76 0 -0.48 2.16 -2.72 0 -1.9 9.12c-0.24,1.16 -0.35,1.86 -0.35,2.08 0,0.34 0.09,0.59 0.28,0.76 0.19,0.18 0.5,0.27 0.94,0.27 0.61,0 1.17,-0.06 1.65,-0.18zm13.34 0.23c-0.97,0.84 -1.91,1.44 -2.8,1.83 -0.9,0.38 -1.86,0.57 -2.88,0.57 -1.51,0 -2.73,-0.45 -3.66,-1.34 -0.93,-0.89 -1.4,-2.04 -1.4,-3.43 0,-0.92 0.22,-1.73 0.63,-2.44 0.42,-0.7 0.97,-1.27 1.66,-1.7 0.69,-0.43 1.54,-0.73 2.54,-0.92 0.63,-0.13 1.83,-0.22 3.59,-0.3 1.76,-0.07 3.03,-0.26 3.8,-0.55 0.21,-0.77 0.32,-1.41 0.32,-1.91 0,-0.66 -0.23,-1.16 -0.71,-1.54 -0.65,-0.51 -1.6,-0.77 -2.86,-0.77 -1.18,0 -2.14,0.26 -2.9,0.78 -0.75,0.53 -1.29,1.27 -1.63,2.23l-2.82 -0.25c0.57,-1.63 1.49,-2.88 2.74,-3.75 1.25,-0.87 2.83,-1.3 4.73,-1.3 2.03,0 3.63,0.49 4.82,1.46 0.9,0.72 1.36,1.66 1.36,2.82 0,0.88 -0.13,1.89 -0.38,3.05l-0.91 4.1c-0.28,1.3 -0.42,2.36 -0.42,3.17 0,0.52 0.11,1.26 0.33,2.24l-2.83 0c-0.15,-0.54 -0.26,-1.22 -0.32,-2.05zm1.05 -6.31c-0.4,0.15 -0.82,0.28 -1.27,0.36 -0.45,0.08 -1.21,0.17 -2.26,0.26 -1.63,0.14 -2.77,0.33 -3.44,0.55 -0.67,0.22 -1.18,0.58 -1.52,1.07 -0.34,0.48 -0.51,1.02 -0.51,1.61 0,0.78 0.27,1.43 0.81,1.93 0.54,0.51 1.31,0.77 2.32,0.77 0.92,0 1.82,-0.25 2.67,-0.74 0.86,-0.49 1.53,-1.18 2.03,-2.05 0.5,-0.88 0.89,-2.13 1.17,-3.76zm14.68 1.53l0.61 -2.8 8.51 0 -0.57 2.8 -8.55 0zm109.76 6.83l3.58 -17.17c-1.55,1.22 -3.72,2.2 -6.52,2.93l0.52 -2.54c1.39,-0.55 2.76,-1.28 4.12,-2.18 1.35,-0.9 2.37,-1.68 3.05,-2.36 0.41,-0.4 0.8,-0.91 1.17,-1.5l1.61 0 -4.75 22.82 -2.78 0zm12.1 -5.21l2.63 -0.26c0.17,1.26 0.54,2.16 1.09,2.7 0.54,0.53 1.19,0.8 1.94,0.8 1.08,0 2.07,-0.47 2.99,-1.4 1.35,-1.36 2.35,-3.31 2.99,-5.87 -0.94,0.71 -1.77,1.21 -2.5,1.51 -0.73,0.3 -1.48,0.45 -2.24,0.45 -1.39,0 -2.63,-0.46 -3.72,-1.39 -1.44,-1.21 -2.17,-2.95 -2.17,-5.21 0,-2.56 0.84,-4.75 2.51,-6.58 1.43,-1.57 3.19,-2.36 5.28,-2.36 1.87,0 3.43,0.7 4.67,2.09 1.24,1.39 1.85,3.35 1.85,5.9 0,2.46 -0.41,4.9 -1.23,7.31 -0.98,2.83 -2.31,4.91 -3.98,6.26 -1.36,1.09 -2.89,1.64 -4.59,1.64 -1.57,0 -2.85,-0.49 -3.84,-1.46 -1,-0.98 -1.56,-2.36 -1.68,-4.13zm3.7 -8.99c0,1.42 0.38,2.55 1.14,3.4 0.76,0.84 1.67,1.27 2.72,1.27 0.77,0 1.54,-0.27 2.31,-0.79 0.77,-0.53 1.42,-1.32 1.97,-2.36 0.55,-1.05 0.82,-2.12 0.82,-3.22 0,-0.87 -0.18,-1.67 -0.54,-2.42 -0.36,-0.74 -0.85,-1.29 -1.48,-1.67 -0.63,-0.38 -1.26,-0.57 -1.91,-0.57 -0.61,0 -1.23,0.17 -1.83,0.49 -0.6,0.34 -1.15,0.82 -1.67,1.46 -0.51,0.64 -0.89,1.37 -1.15,2.2 -0.25,0.83 -0.38,1.56 -0.38,2.21zm13.62 14.2l0.67 -3.18 3.17 0 -0.68 3.18 -3.16 0zm14.09 -12.51c-0.85,-0.47 -1.48,-1.06 -1.9,-1.79 -0.42,-0.73 -0.63,-1.51 -0.63,-2.34 0,-1.37 0.49,-2.64 1.48,-3.81 1.32,-1.58 3.11,-2.37 5.37,-2.37 1.98,0 3.55,0.54 4.7,1.61 1.14,1.06 1.71,2.37 1.71,3.92 0,1.1 -0.3,2.09 -0.92,2.98 -0.61,0.89 -1.57,1.59 -2.89,2.12 0.9,0.57 1.55,1.17 1.94,1.82 0.51,0.83 0.76,1.8 0.76,2.92 0,2.04 -0.71,3.85 -2.15,5.44 -1.44,1.6 -3.37,2.39 -5.76,2.39 -1.91,0 -3.47,-0.59 -4.68,-1.77 -1.21,-1.18 -1.81,-2.65 -1.81,-4.41 0,-1.67 0.42,-3.09 1.29,-4.29 0.85,-1.19 2.02,-2 3.49,-2.42zm0.22 -4c0,0.97 0.31,1.74 0.94,2.34 0.62,0.59 1.49,0.89 2.59,0.89 1.28,0 2.32,-0.39 3.12,-1.17 0.8,-0.78 1.2,-1.73 1.2,-2.86 0,-0.96 -0.31,-1.74 -0.94,-2.34 -0.62,-0.61 -1.49,-0.91 -2.58,-0.91 -0.83,0 -1.59,0.19 -2.28,0.57 -0.69,0.38 -1.21,0.9 -1.54,1.55 -0.34,0.66 -0.51,1.3 -0.51,1.93zm-2.18 10.93c0,0.63 0.15,1.24 0.46,1.81 0.3,0.58 0.76,1.04 1.38,1.38 0.62,0.34 1.33,0.51 2.12,0.51 1.52,0 2.75,-0.71 3.69,-2.14 0.75,-1.11 1.12,-2.32 1.12,-3.6 0,-1.06 -0.35,-1.92 -1.03,-2.59 -0.69,-0.67 -1.59,-1.01 -2.71,-1.01 -1.4,0 -2.59,0.52 -3.57,1.56 -0.97,1.05 -1.46,2.41 -1.46,4.08z"/>
     <path class="fil0" d="M906.1 202.81c0,-1.92 0.29,-3.87 0.86,-5.85 0.57,-1.99 1.21,-3.57 1.91,-4.77 0.69,-1.18 1.42,-2.11 2.17,-2.78 0.76,-0.67 1.49,-1.17 2.22,-1.48 0.73,-0.32 1.53,-0.48 2.42,-0.48 1.73,0 3.17,0.65 4.33,1.94 1.15,1.3 1.73,3.16 1.73,5.6 0,2.51 -0.4,4.99 -1.2,7.45 -0.95,2.91 -2.26,5.09 -3.95,6.55 -1.3,1.11 -2.78,1.66 -4.44,1.66 -1.69,0 -3.12,-0.67 -4.3,-2.01 -1.16,-1.33 -1.75,-3.28 -1.75,-5.83zm2.69 0.72c0,1.39 0.24,2.48 0.7,3.27 0.63,1.08 1.56,1.62 2.8,1.62 1.08,0 2.06,-0.49 2.95,-1.47 1.27,-1.38 2.23,-3.41 2.88,-6.08 0.64,-2.67 0.96,-4.85 0.96,-6.54 0,-1.63 -0.31,-2.81 -0.93,-3.53 -0.62,-0.73 -1.45,-1.09 -2.46,-1.09 -0.75,0 -1.44,0.19 -2.08,0.57 -0.65,0.38 -1.27,1.04 -1.85,1.97 -0.84,1.31 -1.56,3.28 -2.18,5.89 -0.52,2.23 -0.79,4.03 -0.79,5.39zm22.14 6.74l1.24 -5.82 -9.28 0 0.6 -2.77 12.79 -14.16 2.28 0 -3.08 14.46 3.24 0 -0.51 2.47 -3.26 0 -1.24 5.82 -2.78 0zm1.77 -8.29l2.02 -9.48 -8.52 9.48 6.5 0zm7.83 1.46l0.6 -2.8 8.52 0 -0.57 2.8 -8.55 0zm-162.86 -1.18l3 0.41c-0.95,2.63 -2.33,4.62 -4.15,5.96 -1.81,1.35 -3.85,2.02 -6.12,2.02 -2.75,0 -4.94,-0.84 -6.55,-2.53 -1.62,-1.69 -2.43,-4.1 -2.43,-7.24 0,-4.09 1.23,-7.48 3.69,-10.16 2.18,-2.39 4.9,-3.58 8.14,-3.58 2.41,0 4.36,0.65 5.85,1.94 1.48,1.29 2.35,3.03 2.59,5.21l-2.82 0.25c-0.31,-1.64 -0.93,-2.86 -1.87,-3.67 -0.93,-0.81 -2.14,-1.22 -3.61,-1.22 -2.77,0 -5.02,1.23 -6.73,3.7 -1.48,2.14 -2.23,4.67 -2.23,7.59 0,2.34 0.58,4.12 1.72,5.35 1.15,1.23 2.64,1.85 4.48,1.85 1.57,0 2.99,-0.51 4.26,-1.54 1.27,-1.02 2.2,-2.47 2.78,-4.34zm6.37 8.01l4.75 -22.75 9.5 0c1.88,0 3.3,0.16 4.27,0.47 0.97,0.32 1.73,0.91 2.28,1.78 0.55,0.87 0.82,1.97 0.82,3.29 0,1.85 -0.6,3.38 -1.8,4.6 -1.21,1.22 -3.16,2.02 -5.85,2.38 0.83,0.61 1.46,1.21 1.88,1.8 0.93,1.34 1.68,2.72 2.25,4.14l1.75 4.29 -3.38 0 -1.65 -4.24c-0.58,-1.52 -1.25,-2.85 -2,-3.96 -0.5,-0.78 -1.02,-1.3 -1.56,-1.54 -0.54,-0.24 -1.41,-0.37 -2.62,-0.37l-3.52 0 -2.11 10.11 -3.01 0zm5.64 -12.58l4.19 0c1.94,0 3.2,-0.03 3.78,-0.07 1.16,-0.11 2.09,-0.37 2.83,-0.77 0.73,-0.4 1.3,-0.95 1.7,-1.63 0.4,-0.68 0.6,-1.41 0.6,-2.2 0,-0.66 -0.14,-1.24 -0.44,-1.73 -0.31,-0.49 -0.7,-0.82 -1.18,-1 -0.49,-0.17 -1.32,-0.26 -2.48,-0.26l-7.41 0 -1.59 7.66zm18.42 12.58l4.74 -22.75 3.77 0 2.11 14.73c0.27,1.96 0.44,3.82 0.52,5.57 0.63,-1.49 1.68,-3.56 3.16,-6.19l7.93 -14.11 3.8 0 -4.79 22.75 -2.99 0 2.41 -11.06c0.55,-2.56 1.33,-5.43 2.34,-8.61 -0.68,1.47 -1.49,3.06 -2.43,4.78l-8.41 14.89 -2.92 0 -2.09 -14.61c-0.19,-1.34 -0.33,-2.88 -0.41,-4.65 -0.27,2.03 -0.53,3.63 -0.78,4.79l-3 14.47 -2.96 0zm143.43 0l4.75 -22.75 9.46 0c1.64,0 2.87,0.19 3.69,0.57 0.83,0.37 1.5,1.02 2.04,1.93 0.53,0.92 0.8,1.94 0.8,3.08 0,0.94 -0.19,1.9 -0.57,2.87 -0.38,0.97 -0.86,1.77 -1.45,2.4 -0.58,0.63 -1.17,1.11 -1.77,1.43 -0.6,0.32 -1.24,0.55 -1.92,0.71 -1.45,0.34 -2.93,0.51 -4.41,0.51l-5.68 0 -1.93 9.25 -3.01 0zm5.47 -11.82l5.03 0c1.95,0 3.38,-0.21 4.28,-0.63 0.92,-0.42 1.65,-1.06 2.19,-1.91 0.55,-0.86 0.83,-1.77 0.83,-2.73 0,-0.74 -0.15,-1.35 -0.44,-1.81 -0.29,-0.47 -0.7,-0.82 -1.23,-1.04 -0.52,-0.22 -1.54,-0.33 -3.05,-0.33l-5.84 0 -1.77 8.45zm16.92 11.82l4.75 -22.75 9.51 0c1.87,0 3.29,0.16 4.26,0.47 0.97,0.32 1.73,0.91 2.28,1.78 0.55,0.87 0.83,1.97 0.83,3.29 0,1.85 -0.6,3.38 -1.81,4.6 -1.21,1.22 -3.15,2.02 -5.84,2.38 0.82,0.61 1.45,1.21 1.87,1.8 0.93,1.34 1.68,2.72 2.25,4.14l1.75 4.29 -3.38 0 -1.64 -4.24c-0.59,-1.52 -1.26,-2.85 -2.01,-3.96 -0.5,-0.78 -1.02,-1.3 -1.56,-1.54 -0.53,-0.24 -1.41,-0.37 -2.61,-0.37l-3.53 0 -2.11 10.11 -3.01 0zm5.64 -12.58l4.19 0c1.94,0 3.2,-0.03 3.79,-0.07 1.15,-0.11 2.09,-0.37 2.82,-0.77 0.73,-0.4 1.3,-0.95 1.7,-1.63 0.41,-0.68 0.61,-1.41 0.61,-2.2 0,-0.66 -0.15,-1.24 -0.45,-1.73 -0.3,-0.49 -0.69,-0.82 -1.18,-1 -0.48,-0.17 -1.31,-0.26 -2.48,-0.26l-7.41 0 -1.59 7.66z"/>
    </g>
   </g>
   <rect class="fil2" width="1082.03" height="314.02"/>
  </g>
 </g>
</svg>
