<?xml version="1.0" encoding="UTF-8"?>
<!DOCTYPE svg PUBLIC "-//W3C//DTD SVG 1.1//EN" "http://www.w3.org/Graphics/SVG/1.1/DTD/svg11.dtd">
<!-- Creator: CorelDRAW 2017 -->
<svg xmlns="http://www.w3.org/2000/svg" xml:space="preserve" width="1204px" height="905px" version="1.1" style="shape-rendering:geometricPrecision; text-rendering:geometricPrecision; image-rendering:optimizeQuality; fill-rule:evenodd; clip-rule:evenodd"
viewBox="0 0 582.69 437.89"
 xmlns:xlink="http://www.w3.org/1999/xlink">
 <defs>
  <style type="text/css">
   <![CDATA[
    .fil0 {fill:#001041}
    .fil1 {fill:white;fill-opacity:0.039216}
   ]]>
  </style>
 </defs>
 <g id="Layer_x0020_1">
  <metadata id="CorelCorpID_0Corel-Layer"/>
  <g id="_1407520212240">
   <rect class="fil0" width="582.69" height="437.88"/>
   <path class="fil1" d="M409.14 141.81c8.13,-28.76 16.26,-57.52 24.4,-86.28 -42.34,1.03 -79.59,-12.47 -118.93,-22.32 -20.75,-5.19 -37.82,-9.03 -59.25,-4.9 -17.26,3.34 -32.02,10.91 -44.59,22.89 -32.66,35.36 -32.13,70.31 -52.62,116.26 21.87,1.2 37.49,-3.16 42.73,-14.46 26.55,-50.83 70.85,-52.16 106,-8.86 30.79,-39.63 65.07,-38.04 102.26,-2.33zm-213.82 27.44c1.41,26.33 11.46,46.95 25.58,67.01l-18.59 62.96c-11.87,35.29 -52.72,24.31 -42.99,-13.99l36 -115.98zm65.09 111.31l-26.73 88.62c-11.89,39.17 -53.96,30.52 -43.48,-8.17l35.35 -119.54c10.19,13.75 21.41,26.98 34.86,39.09zm-16.21 78.12c-11.09,36 25.35,48.37 40.55,18.66 6.97,-21.56 13.94,-43.12 20.91,-64.68 -14.98,-6.91 -27.73,-16.07 -39.45,-26.27l-22.01 72.29zm107.21 -103.4l-0.01 0c11.65,3.5 18.29,15.75 14.77,27.26l-16.65 54.33c-3.53,11.51 -15.95,18.08 -27.6,14.59l0.01 0c-11.65,-3.48 -18.3,-15.75 -14.77,-27.26l16.65 -54.33c3.53,-11.51 15.95,-18.08 27.6,-14.59z"/>
  </g>
 </g>
</svg>
